<svg width="20" height="20" viewBox="0 0 20 20" fill="none" xmlns="http://www.w3.org/2000/svg">
<g clip-path="url(#clip0_612_515)">
<path d="M19.5862 8.11842C19.5862 11.4497 15.2845 14.1528 9.97517 14.1528C4.66588 14.1528 0.364258 11.4497 0.364258 8.11842C0.364258 4.7871 4.66596 2.08398 9.97517 2.08398C15.2845 2.08398 19.5862 4.7871 19.5862 8.11842" fill="#D33833"/>
<path d="M0.759691 9.61285C0.759691 9.61285 0.0621379 3.32153 9.51035 3.14062L8.85154 2.46484L3.72823 3.52134L2.26337 4.55405L0.984501 6.05789L0.255859 7.80921L0.472937 8.97995" fill="#EF3D3A"/>
<path d="M3.39439 4.00252C1.71253 5.06376 0.666122 6.52482 0.666122 8.14285C0.666122 9.76088 1.71253 11.2219 3.39439 12.2831C5.08406 13.3444 7.40161 13.9964 9.97482 13.9964C12.5481 13.9964 14.8656 13.3444 16.5553 12.2832C18.2372 11.2219 19.2835 9.76088 19.2835 8.14285C19.2835 6.52477 18.2372 5.06376 16.5553 4.00252C14.8657 2.94602 12.5481 2.28933 9.97482 2.28933C7.40934 2.28933 5.08414 2.94127 3.39439 4.00252ZM2.96812 12.5354C1.17777 11.4123 0.0693359 9.85609 0.0693359 8.14285C0.0693359 6.42961 1.17777 4.8734 2.96812 3.74554C4.75856 2.62242 7.23882 1.92285 9.9749 1.92285C12.7109 1.92285 15.1912 2.62242 16.9816 3.74554C18.772 4.86865 19.8804 6.42482 19.8804 8.14285C19.8804 9.85604 18.772 11.4123 16.9816 12.5354C15.1912 13.6632 12.7109 14.3581 9.97482 14.3581C7.23882 14.3581 4.75856 13.6632 2.96812 12.5354Z" fill="#231F20"/>
<path d="M14.0214 8.15172L12.5564 8.28496L10.58 8.42299L9.30112 8.44203L8.05326 8.41825L7.09989 8.23743L6.25501 7.6758L5.5962 6.52889L5.44896 6.28141L4.57315 6.1006L4.06151 5.58189L3.69727 4.83944L4.10033 4.1875L5.0537 3.98285L5.82101 4.20654L6.18526 4.70151L6.62706 4.65863L6.77431 4.54443L6.62706 4.02568L6.58832 3.37369L6.80532 2.47426L6.79759 1.96031L7.46413 1.30357L8.6345 0.784816L10.6808 0.24707L12.9518 0.451675L14.9282 1.32736L15.8428 2.22678L16.4318 2.87877L16.5791 4.49681L16.1373 5.89119L15.3312 7.12856L14.5717 7.79004" fill="#F0D6B7"/>
<path d="M12.781 12.04L7.54924 12.1732V12.7109L7.99105 14.6003L7.77398 14.7573L4.11561 13.9911L3.85987 13.7199L3.49555 11.1786L2.63521 9.65569L2.44922 9.29401L5.37902 8.0567L6.29365 7.83301L7.0997 8.44212L7.79725 8.82289L8.60338 8.97991L8.96763 9.04658L9.40944 10.2173L9.74275 10.4648L10.5875 10.2839L9.99849 10.9834L13.1763 11.9067L12.781 12.0399" fill="#335061"/>
<path d="M4.10037 4.19769L5.05374 3.99309L5.82105 4.21673L6.18529 4.7117L6.6271 4.66887L6.73568 4.3976L6.5186 3.87884L6.7356 2.64153L6.54961 1.96575L7.20842 1.49462L8.63454 0.799804L8.23147 0.461914L6.21631 1.07103L5.37151 1.47558L4.89869 2.10374L4.17012 2.7129L3.95312 3.43151L4.10037 4.19769Z" fill="#6D6B6D"/>
<path d="M5.60405 2.08449C5.60405 2.08449 6.15428 1.25168 8.34778 0.847175C10.5412 0.442667 8.45636 0.556863 8.45636 0.556863L6.07672 1.11845L5.16224 1.67998L4.75918 2.12732L5.60405 2.08449ZM4.50343 4.04046C4.50343 4.04046 3.73605 2.46521 6.66585 2.24156L6.55735 1.97029L4.54218 2.2606L3.95312 3.43135L4.10037 4.19749L4.50343 4.04046Z" fill="#DCD9D8"/>
<path d="M5.67345 6.13003L6.15393 5.84446C6.15393 5.84446 6.37101 5.85876 6.40975 6.01578C6.44849 6.17286 6.55699 7.59103 8.13043 8.35247C8.27768 8.42384 6.96006 8.23823 6.96006 8.23823L5.78961 7.11511M12.4089 5.70168C12.4089 5.70168 12.4941 5.02115 12.7964 5.07353C13.0987 5.12585 13.0987 5.31142 13.0987 5.31142C13.0987 5.31142 12.3701 5.59698 12.4089 5.70168ZM15.4472 3.20801C15.4472 3.20801 14.8426 3.28413 14.7884 3.61252C14.7341 3.94087 15.4472 3.67914 15.5557 3.65535M11.0215 3.2318C11.0215 3.2318 10.2154 3.29842 10.2154 3.61252C10.2154 3.92657 11.13 3.90278 11.3857 3.76955M6.04543 4.69281C6.04543 4.69281 4.65813 4.17405 4.51089 4.66902C4.36365 5.16393 4.03807 5.52082 4.72789 6.03957L4.25507 5.94916L3.81334 5.25434L3.66602 4.57856L4.51089 4.04082L5.46419 4.08365L6.0145 4.35492L6.04551 4.69281M6.70432 3.27463C6.70432 3.27463 7.3243 1.29487 10.4712 0.91415C13.0599 0.600049 14.424 0.980817 14.9356 1.34245C14.9356 1.34245 12.6259 -0.342205 10.4324 0.171752C8.23893 0.690505 6.62675 1.63276 6.66549 2.23717C6.72751 3.27458 6.70424 3.27458 6.70424 3.27458M15.1913 1.56614C15.1913 1.56614 14.1295 1.54235 14.0907 2.12768C14.0907 2.12768 14.0907 2.21813 14.1606 2.30854C14.1606 2.30854 15.0053 1.72317 15.5169 2.03727" fill="#F7E4CD"/>
<path d="M10.549 2.36976C10.549 2.36976 10.3631 1.47509 9.12293 1.99379C8.3168 2.33168 8.39429 2.80281 8.53388 2.89326C8.68112 2.98367 8.64238 3.16449 8.75088 3.04079C8.85938 2.91705 8.82837 2.51254 9.23143 2.3983C9.62669 2.2841 10.2933 2.16041 10.549 2.36976Z" fill="#F7E4CD"/>
<path d="M7.10767 8.4427L3.66615 9.38491C3.66615 9.38491 5.09234 12.8685 4.3637 13.9488L3.85221 13.8346L3.81347 12.5068L2.8601 9.99412L2.45703 9.29925L6.04564 7.81445L7.10751 8.44265M7.45637 10.37L7.94465 10.7365V12.0833H7.36341C7.36341 12.0833 7.29366 11.141 7.29366 11.0268C7.29366 10.9126 7.36341 10.5081 7.36341 10.5081M7.47191 12.2879L5.82099 12.3308L6.29381 12.5354L7.4641 12.6497" fill="#49728B"/>
<path d="M13.1065 12.0638L14.4628 12.04L14.7961 14.1054L13.4087 14.2197L13.1064 12.0638" fill="#335061"/>
<path d="M13.4707 12.0638L15.5169 11.9972C15.5169 11.9972 16.3618 10.6932 16.3618 10.6266C16.3618 10.56 17.0903 8.73731 17.0903 8.73731L15.4394 7.68082L15.1061 7.5L14.2303 8.03775V10.127L13.4707 12.0638Z" fill="#335061"/>
<path d="M14.3853 11.9069L13.1064 12.064L13.2925 12.6922C13.7653 12.8254 14.5714 12.4685 14.5714 12.4685M14.4241 7.97126L16.9896 9.14196L17.0594 8.60416L15.1217 7.50488L14.4241 7.97126" fill="#49728B"/>
<path d="M8.74338 16.4902L7.9838 14.6009L7.60401 13.2065L7.54199 12.1738L10.9755 12.0596H13.107L12.9133 14.42L13.2465 16.2427L13.2078 16.5806L10.4252 16.7139L8.74338 16.4902Z" fill="white"/>
<path d="M12.6337 12.0405C12.6337 12.0405 12.4477 14.3772 12.998 16.0428C12.998 16.0428 11.8974 16.4711 10.293 16.5806L13.3701 16.5139L13.7343 16.3807L13.2926 12.6973L13.1763 11.9072" fill="#DCD9D8"/>
<path d="M14.8505 13.9291L16.2766 13.6816L18.9817 13.5912L19.3847 12.8251L18.6561 11.4973L17.8113 11.4307L16.6409 11.6544L15.5248 11.9922L14.928 11.9256L14.4629 12.0398" fill="white"/>
<path d="M14.8271 13.477C14.8271 13.477 15.7805 13.2057 15.9278 13.2295L15.5247 11.9922L15.9975 11.8779C15.9975 11.8779 16.3308 13.0487 16.3308 13.1819C16.3308 13.1819 18.377 13.2485 18.563 13.2485C18.563 13.2485 19.0048 12.7298 18.8963 12.192L19.2994 12.9106L19.3381 13.3151L18.7491 13.8529L18.0903 13.9433L16.9896 13.9196L16.6253 13.6292L15.3464 13.7434L14.9434 13.8339" fill="#DCD9D8"/>
<path d="M13.3853 11.8832L12.5792 10.6268L11.7344 9.88437C11.7344 9.88437 11.9204 9.57031 12.1762 9.57031H13.0211L13.8272 9.75113L13.7574 10.584L13.3853 11.8832Z" fill="white"/>
<path d="M13.5486 11.4545C13.5486 11.4545 12.5255 10.2409 12.5255 10.0601C12.5255 10.0601 12.7115 9.7888 12.9673 9.85547C13.2231 9.92209 13.7734 10.1029 13.7734 10.1029V9.6746L12.5255 9.51758L11.6807 9.5842L13.1068 11.6591L13.4013 11.6829" fill="#DCD9D8"/>
<path d="M9.0683 8.48967L8.05298 8.423L7.09961 8.24219V8.44684L7.56462 8.76094L9.02956 9.16545" fill="white"/>
<path d="M7.4328 8.55664C7.4328 8.55664 8.56435 8.84695 8.93648 8.78033L8.97515 9.0516L7.9521 8.91832L7.33203 8.64705L7.4328 8.55664Z" fill="#DCD9D8"/>
<path d="M14.8508 9.646C14.2308 9.63646 13.6649 9.58888 13.1766 9.50322C13.2076 9.37948 13.1456 9.26053 13.1999 9.17008C13.3394 9.10821 13.5641 9.10821 13.7734 9.09396C13.5952 9.04159 13.3394 9.0178 13.1379 9.05113C13.1301 8.96547 13.0681 8.9131 13.0293 8.84648C13.3782 8.77032 14.1997 8.27065 14.6648 8.43243C14.8896 8.51334 14.9826 8.96068 14.9981 9.18437C15.0135 9.36518 14.9671 9.54605 14.8508 9.646Z" fill="#D33833"/>
<path d="M14.8508 9.646C14.2308 9.63646 13.6649 9.58888 13.1766 9.50322C13.2076 9.37948 13.1456 9.26053 13.1999 9.17008C13.3394 9.10821 13.5641 9.10821 13.7734 9.09396C13.5952 9.04159 13.3394 9.0178 13.1379 9.05113C13.1301 8.96547 13.0681 8.9131 13.0293 8.84648C13.3782 8.77032 14.1997 8.27065 14.6648 8.43243C14.8896 8.51334 14.9826 8.96068 14.9981 9.18437C15.0135 9.36518 14.9671 9.54605 14.8508 9.646Z" fill="black" stroke="#D33833" stroke-width="11.9904"/>
<path d="M11.8817 9.02263C11.8817 9.05122 11.8817 9.07971 11.8739 9.10829C11.6802 9.18446 11.3701 9.18446 11.1531 9.25108C11.4632 9.26057 11.7112 9.30815 11.9282 9.37002C11.9204 9.44144 11.9204 9.5176 11.9128 9.58897C11.5562 9.7365 11.2307 9.96019 10.8121 10.1029C10.6106 10.1696 9.92078 10.3409 9.71152 10.3076C9.59521 10.2885 9.57974 10.1981 9.53326 10.1125C9.4325 9.93165 9.19995 9.63654 9.17668 9.36052C9.1534 9.01314 9.09145 8.42777 9.70371 8.49913C10.1997 8.55626 10.7733 8.69429 11.1531 8.82278C11.3934 8.90844 11.5252 9.00359 11.8817 9.02263Z" fill="#D33833"/>
<path d="M11.8817 9.02263C11.8817 9.05122 11.8817 9.07971 11.8739 9.10829C11.6802 9.18446 11.3701 9.18446 11.1531 9.25108C11.4632 9.26057 11.7112 9.30815 11.9282 9.37002C11.9204 9.44144 11.9204 9.5176 11.9128 9.58897C11.5562 9.7365 11.2307 9.96019 10.8121 10.1029C10.6106 10.1696 9.92078 10.3409 9.71152 10.3076C9.59521 10.2885 9.57974 10.1981 9.53326 10.1125C9.4325 9.93165 9.19995 9.63654 9.17668 9.36052C9.1534 9.01314 9.09145 8.42777 9.70371 8.49913C10.1997 8.55626 10.7733 8.69429 11.1531 8.82278C11.3934 8.90844 11.5252 9.00359 11.8817 9.02263Z" fill="black" stroke="#D33833" stroke-width="11.9904"/>
<path d="M12.2309 9.43677C12.1766 9.24636 12.1146 9.19409 12.1378 9.02747C12.9672 8.68958 13.1145 9.60809 12.2309 9.43677Z" fill="#D33833"/>
<path d="M12.2309 9.43677C12.1766 9.24636 12.1146 9.19409 12.1378 9.02747C12.9672 8.68958 13.1145 9.60809 12.2309 9.43677Z" fill="black" stroke="#D33833" stroke-width="11.9904"/>
<path d="M13.4245 9.58984C13.4245 9.58984 13.1687 9.36615 13.3547 9.29953C13.5408 9.23291 13.719 9.29953 13.8275 9.18533C13.9361 9.07109 13.8275 9.00452 13.8663 8.87123C13.905 8.73799 14.0833 8.7142 14.2694 8.69042C14.4553 8.66658 14.9669 8.62375 15.0367 8.73325L14.8197 8.32869L14.3779 8.23828L12.9905 8.73325L12.9207 8.98073V9.47564M9.58013 10.3322C9.53365 9.98006 9.48718 9.63267 9.44062 9.28049C9.36313 8.75703 9.64215 8.84739 10.3862 8.84739C10.5025 8.84739 11.0837 8.92835 11.1226 8.98073C11.3241 9.23291 10.7892 9.17579 11.355 9.36615C11.8278 9.52322 12.6727 9.27099 12.4789 8.91406C12.3703 8.83315 11.9209 8.89027 11.7581 8.8379L10.8977 8.56667C10.5335 8.45243 9.69636 8.28111 9.30884 8.44293C8.32446 8.85219 9.37086 9.88015 9.71964 10.3084" fill="#EF3D3A"/>
<path d="M10.5486 2.37019C9.54877 2.2274 9.05275 2.62716 8.75045 3.04117C8.47916 3.00314 8.58766 2.77469 8.65749 2.6605C8.83567 2.36069 9.55658 1.95613 10.1456 2.01326C10.3936 2.0323 10.7346 2.17508 10.5486 2.37019ZM15.4084 3.06496H15.4548C15.6797 3.35052 15.8734 3.65513 16.1602 3.9121C15.9665 4.18812 14.7185 4.42606 14.734 3.94064C15.0053 3.86927 15.4704 3.92635 15.7107 3.83119C15.5712 3.598 15.3774 3.39805 15.4084 3.06496ZM11.0524 3.07455C11.2694 3.31724 11.3391 3.56947 11.6414 3.75033C11.781 3.83119 12.0445 3.93115 11.9128 4.15954C11.8818 4.21191 11.657 4.33091 11.5252 4.35469C11.0524 4.44035 9.94402 4.37373 10.3161 4.00726C10.7113 4.0168 11.2384 4.16433 11.533 3.98822C11.3082 3.76932 10.9051 3.33148 11.0524 3.07455ZM15.2301 5.52059C14.517 5.80141 13.7186 6.11076 12.5406 6.03935C12.2926 5.90611 12.1918 5.60625 12.4398 5.41119C12.5638 5.54443 12.4863 5.79191 12.8429 5.82995C13.5094 5.90136 14.2845 5.57772 14.765 5.46832C15.0595 5.15896 14.7418 5.04951 14.4705 4.84961C13.9202 4.4451 13.1917 3.94064 13.2149 3.33628C13.4397 3.23633 13.4551 3.48856 13.4861 3.53138C13.7729 3.94064 14.4938 4.46889 15.013 4.82107C15.1448 4.90673 15.3541 4.99239 15.3774 5.04951C15.4471 5.21129 15.1991 5.4111 15.2301 5.52059ZM5.78956 5.22558C5.56483 5.14467 5.51061 4.80203 5.24706 4.79249C4.86727 4.77824 4.93703 5.23987 4.93703 5.5111C4.68128 5.36836 4.63473 4.92098 4.82079 4.69258C4.6038 4.62592 4.51068 4.76395 4.38672 4.81153C4.54951 4.12151 6.03757 4.49268 5.78956 5.22558ZM15.6797 5.81091C15.3463 6.20117 14.8735 6.62947 13.8969 6.64376C13.8737 6.52002 13.8582 6.32491 13.8969 6.24875C14.6488 6.20117 15.1138 5.96798 15.6797 5.81091ZM10.9982 6.06314C11.6182 6.26304 12.7653 6.28683 13.6179 6.27254C13.6644 6.38678 13.6644 6.52951 13.6644 6.66755C12.5716 6.69609 11.2849 6.52951 10.9982 6.06314ZM10.8819 6.43436C11.3159 7.10059 12.7963 7.02448 14.0442 7.00544C13.99 7.0911 13.8737 7.1958 13.7187 7.22908C13.3156 7.32903 12.215 7.4052 11.657 7.22433C11.3082 7.11014 11.0756 6.84836 10.8819 6.69608C10.7966 6.62472 10.3316 6.43911 10.8819 6.43436Z" fill="#231F20"/>
<path d="M15.1757 10.103C14.6719 10.636 14.1837 11.1833 13.5869 11.6496C13.8348 11.1976 13.9433 10.4361 13.9822 9.85554C14.5092 9.70321 14.9587 9.88878 15.1757 10.103Z" fill="#81B0C4"/>
<path d="M17.8961 12.0166C17.3303 12.088 16.935 12.4259 16.377 12.4021C16.687 12.1403 17.214 12.0261 17.8961 12.0166ZM18.1441 12.5591C17.6791 12.5877 17.1365 12.6353 16.6715 12.6115C16.8963 12.4021 17.7489 12.4782 18.1441 12.5591ZM18.3069 13.0303C17.7876 13.035 17.1443 13.0303 16.6482 13.0064C16.9427 12.8113 17.9736 12.9351 18.3069 13.0303Z" fill="#231F20"/>
<path d="M14.1992 14.3152C14.2767 14.7149 14.5326 15.1195 14.5015 15.5573C14.2147 15.6143 14.052 15.6667 13.6644 15.6667C13.6412 15.2955 13.5559 14.7245 13.5792 14.3675C13.7652 14.377 14.0442 14.2866 14.1992 14.3152Z" fill="#DCD9D8"/>
<path d="M13.362 8.41411C13.0985 8.51876 12.8815 8.64725 12.6256 8.7615C12.0676 8.78054 11.7653 8.73771 11.3623 8.5426C11.37 8.52831 11.4088 8.53306 11.4088 8.51401C12.0056 8.67584 12.7651 8.44744 13.362 8.41411Z" fill="#F0D6B7"/>
<path d="M10.2461 10.9024C10.4089 10.4693 11.0522 10.2409 11.6335 10.0029C12.2303 10.4693 12.5946 11.0689 12.9976 11.6495C12.0443 11.4734 11.0754 11.1927 10.2461 10.9024Z" fill="#81B0C4"/>
<path d="M13.5795 14.3726C13.5563 14.7295 13.6337 15.2958 13.6648 15.6718C14.0524 15.6718 14.2151 15.6194 14.5019 15.5623C14.5329 15.1245 14.2771 14.72 14.1996 14.3202C14.0445 14.2869 13.7655 14.3773 13.5795 14.3726ZM7.59589 12.3548C7.85171 13.7872 8.21595 14.9864 8.89023 16.2571C10.3862 16.5379 12.1844 16.5617 13.5098 16.3095C13.2695 15.5957 13.3703 14.7248 13.2308 13.9585C13.1222 13.3827 13.1765 12.8069 13.0292 12.2215C11.4248 12.0169 9.1616 12.1739 7.59589 12.3548ZM13.409 12.2311C13.3935 12.845 13.4555 13.4541 13.5331 14.068C13.9205 14.0347 14.1763 14.0109 14.5329 13.9585C14.4166 13.3684 14.4321 12.6974 14.1919 12.1739C13.9206 12.1787 13.6802 12.174 13.409 12.2311ZM15.3544 12.1311C15.1684 12.1073 14.9592 12.1311 14.7887 12.1311C14.8739 12.6308 15.0677 13.1829 15.1374 13.7111C15.4087 13.7158 15.556 13.6349 15.7808 13.6111C15.7962 13.1495 15.7187 12.5118 15.3544 12.1311ZM18.3075 13.7872C18.8811 13.7016 19.2376 13.2733 19.0748 12.8307C18.9663 12.5356 18.7803 11.9741 18.571 11.7837C18.4237 11.6457 18.0129 11.4601 17.6797 11.5886C17.1449 11.798 16.207 11.8598 15.8195 12.1121C16.0132 12.5118 16.0753 13.0544 16.1527 13.5588C16.8194 13.5826 17.6332 13.4446 18.1913 13.5921C17.8037 13.6683 17.3077 13.6683 16.9743 13.7825C17.2534 13.8634 17.889 13.8491 18.3075 13.7872ZM12.9905 11.6504C12.5874 11.0699 12.2232 10.4702 11.6263 10.0039C11.045 10.2417 10.4095 10.4702 10.2389 10.9033C11.076 11.1936 12.0449 11.4744 12.9905 11.6504ZM13.9825 9.85633C13.9438 10.4369 13.8353 11.1983 13.5873 11.6504C14.1841 11.1793 14.6724 10.6368 15.1762 10.1038C14.9592 9.88961 14.5096 9.704 13.9826 9.85628L13.9825 9.85633ZM12.8587 9.61364C12.6339 9.5993 12.4402 9.77542 12.1456 9.69925C12.0759 9.74683 12.0138 9.79446 11.9441 9.84204C12.5951 10.3274 12.8974 11.0128 13.4013 11.5791C13.6726 11.0318 13.6416 10.4369 13.7036 9.84204C13.3315 9.85153 13.1223 9.62793 12.8587 9.61364ZM12.1379 9.02822C12.1146 9.19479 12.1766 9.24717 12.2308 9.43753C13.1144 9.60885 12.9672 8.69033 12.1379 9.02822ZM11.1535 8.82837C10.7737 8.69983 10.2002 8.56184 9.70409 8.50477C9.09184 8.43335 9.15378 9.01873 9.17706 9.36616C9.20034 9.64213 9.43288 9.93244 9.53365 10.1181C9.58013 10.2037 9.59559 10.2941 9.7119 10.3132C9.92117 10.3417 10.6187 10.1752 10.8125 10.1085C11.2311 9.97052 11.5566 9.74688 11.9131 9.59455C11.9209 9.52319 11.9209 9.44702 11.9286 9.37566C11.7116 9.30899 11.4713 9.26621 11.1535 9.25671C11.3628 9.19005 11.6806 9.19005 11.8743 9.11393C11.8743 9.08535 11.8743 9.05681 11.8821 9.02822C11.5255 9.00443 11.3938 8.90928 11.1535 8.82837ZM7.51067 8.42386C7.1929 8.62371 8.40194 8.89024 8.78181 8.90453C8.78181 8.78079 8.89804 8.66184 8.87476 8.57139C8.41749 8.52381 7.8207 8.5571 7.51067 8.42386ZM11.4171 8.51427C11.4171 8.53331 11.3783 8.52856 11.3706 8.54285C11.7814 8.73796 12.0836 8.78074 12.6339 8.76175C12.882 8.6523 13.1067 8.51906 13.3703 8.41431C12.7657 8.44765 12.0062 8.67609 11.4171 8.51427ZM14.9979 9.18055C14.9825 8.9616 14.8893 8.50952 14.6646 8.42861C14.1996 8.26204 13.378 8.7665 13.0292 8.84266C13.068 8.90928 13.13 8.9616 13.1377 9.04726C13.3471 9.01398 13.595 9.03777 13.7733 9.09009C13.564 9.10439 13.3393 9.10439 13.1997 9.16626C13.1532 9.25666 13.2152 9.37566 13.1765 9.4994C13.6648 9.58506 14.2306 9.62789 14.8507 9.64213C14.9669 9.54698 15.0134 9.36611 14.9979 9.18055ZM6.97583 8.61422C6.87506 8.57139 6.20078 8.03359 6.10775 8.05738C4.8909 8.35249 3.75154 8.8617 2.73614 9.34707C3.70498 10.6273 4.10031 12.193 4.17007 13.7016C5.2785 14.0204 6.25499 14.482 7.76641 14.5296C7.58816 13.773 7.43318 13.0924 7.33241 12.3785C6.95263 12.2786 6.41005 12.3833 6.05354 12.35C6.05354 12.0883 6.59604 12.2358 6.64252 12.0597C6.67361 11.9264 6.34022 11.917 6.44879 11.7076C6.72782 11.7694 6.87506 11.9074 7.16962 11.9598C7.44091 11.5981 7.16963 10.9557 7.20837 10.6511C7.21618 10.594 7.25485 10.337 7.46411 10.3798C7.65018 10.4179 7.45638 11.0699 7.47192 11.3554C7.48739 11.6219 7.41763 11.8741 7.59589 12.0407C9.0531 11.917 10.5335 11.8408 12.1146 11.8123C11.7658 11.7218 11.355 11.6362 10.9055 11.4791C10.6575 11.3935 9.89016 11.2174 9.8204 11.0746C9.70409 10.8462 10.1149 10.7272 10.1846 10.5321C9.44835 10.7795 9.30884 10.2942 9.13058 9.95623C8.97553 9.64688 8.88257 9.41374 8.84383 9.23762C8.20049 9.03777 7.5184 8.85216 6.97583 8.61422ZM14.3546 8.11925C15.37 7.81949 15.556 9.24717 15.1529 9.7088C15.2149 9.84678 15.4242 9.89916 15.5095 10.0229C14.9436 10.6463 14.3159 11.2269 13.7345 11.8408C14.1609 11.6742 14.7809 11.8123 15.2847 11.6885C15.4707 11.6457 15.6025 11.384 15.742 11.1746C16.1295 10.6035 16.5325 9.88007 16.7109 9.33762C16.7496 9.21388 16.8658 8.94256 16.8348 8.83311C16.7884 8.63326 16.3543 8.48573 16.1295 8.36674C15.7187 8.13829 15.4629 7.94323 15.0288 7.72904C14.8661 7.88611 14.4941 7.99076 14.3546 8.1193V8.11925ZM4.65836 2.59407C4.1778 2.92247 4.27857 3.53163 4.33286 3.96942C5.20867 3.63158 6.36357 3.99801 6.35576 4.56909C6.77429 4.56429 6.51082 4.25024 6.43333 4.04559C6.18524 3.3841 6.85186 2.67024 6.46426 2.06587C5.7125 2.10391 5.10017 2.28947 4.65836 2.59407ZM8.11519 0.695273C7.02238 0.885633 5.61946 1.3758 5.16992 1.98017C5.5187 1.94688 5.75897 1.84218 6.10002 1.82789C6.2318 1.82314 6.40232 1.86122 6.54956 1.83743C6.84405 1.78985 7.09987 1.38055 7.3246 1.22827C7.54168 1.08074 7.80516 1.01412 7.98349 0.880885C8.09972 0.847552 8.27016 0.847552 8.27798 0.742851C8.2315 0.709518 8.17721 0.685777 8.11519 0.695273ZM13.812 0.876089C12.6727 0.481125 10.7505 0.186065 9.54138 0.55724C8.56473 0.857048 7.24719 1.35196 6.79757 1.97547C7.2161 2.57978 6.6736 3.13182 6.63478 3.74573C6.61932 4.07412 6.88287 4.35494 6.90607 4.71187C6.75883 4.8594 6.32475 4.87364 6.02253 4.86415C5.92176 4.55 5.74351 4.19786 5.2164 4.15978C4.47237 4.10746 3.92206 4.48817 3.89105 4.88319C3.8523 5.34957 4.47237 6.1205 5.35591 6.06817C5.69695 6.04913 5.78225 5.83973 6.15423 5.83973C6.35576 6.08722 5.84427 6.16333 5.78999 6.3394C5.77444 6.38702 5.82873 6.56309 5.86747 6.64875C6.03026 7.05326 6.38677 7.58151 6.73555 7.89086C7.18509 8.28582 8.06098 8.34295 9.00654 8.38103C9.17706 8.15734 9.79713 8.17638 10.2001 8.2335C9.7119 8.11455 9.26236 7.82899 8.89031 7.57676C8.46396 7.28645 8.02997 6.97714 8.00669 6.59642C8.82055 7.28645 9.48709 7.89086 10.9598 8.19547C12.0759 8.42386 13.378 8.09072 14.2383 7.71954C14.5949 7.56721 14.8041 7.31978 15.0599 7.10084C16.0055 6.26328 16.4473 5.0735 16.3543 3.9171C16.3155 3.44122 16.3155 2.9653 16.052 2.64645C15.7808 2.31331 14.8584 2.00875 14.3158 2.31331C14.2151 1.98496 14.7654 1.78506 15.4086 1.90405C14.9514 1.53762 14.4709 1.10453 13.812 0.876089ZM15.9357 11.6362C16.8271 11.3649 18.4858 10.908 19.0361 11.6362C19.2454 11.9074 19.4856 12.3595 19.5864 12.6403C19.7336 13.0306 19.4236 13.8586 18.7648 13.9871C18.1835 14.1013 17.5092 14.0966 16.8116 14.0109C16.7263 13.9681 16.6411 13.8967 16.5714 13.8205C16.0753 13.811 15.6025 13.8348 15.2149 13.9633C15.2537 14.1917 15.0057 14.2251 14.7654 14.2727C14.5949 14.6962 15.1142 15.2482 14.9902 15.6289C14.9049 15.905 14.3546 15.9478 13.9516 15.9954C13.936 16.1477 13.9671 16.2762 13.9981 16.4047C13.9051 16.6141 13.4942 16.733 13.099 16.7616C11.8046 16.8568 9.84368 16.8996 8.60355 16.6236C8.2547 16.1001 7.98349 15.4672 7.69666 14.8723C6.48754 14.9532 5.50323 14.5534 4.58087 14.2869C4.2631 14.1965 3.82129 14.1441 3.69725 13.9871C3.58102 13.8348 3.62749 13.5445 3.59648 13.2733C3.52673 12.5737 3.45697 11.8979 3.16249 11.184C3.03071 10.8605 2.79043 10.5797 2.62764 10.2704C2.47267 9.98482 2.20911 9.62789 2.13936 9.34232C2.03859 8.91882 2.68966 8.89499 3.10046 8.70937C3.74381 8.42386 4.24756 8.26678 4.94511 8.00981C5.15446 7.93369 5.77444 7.74333 5.8442 7.65287C5.98379 7.47686 5.604 7.22937 5.50323 7.09134C5.34044 6.87244 5.25514 6.68683 5.23194 6.47264C4.65062 6.41556 4.20108 6.20141 3.9376 5.96347C3.49572 5.56371 3.18568 4.82606 3.57328 4.26928C3.60429 4.22645 3.75154 4.13599 3.77482 4.06937C3.82129 3.93614 3.68952 3.76002 3.68178 3.61729C3.64304 2.88913 3.88332 2.26093 4.68163 2.04204C5.00713 1.24731 6.1697 0.985585 7.26266 0.590573C7.67346 0.443043 8.123 0.347887 8.58801 0.243139C10.2544 -0.132784 12.82 -0.0614174 14.2073 0.581029C14.7964 0.8523 15.7342 1.42813 16.0675 1.84693C16.9588 2.94626 16.8891 4.78798 16.2691 6.13005C16.1838 6.31086 16.0675 6.57259 15.897 6.79153C15.7808 6.94381 15.4164 7.24362 15.4552 7.37686C15.5017 7.51489 16.2923 7.88132 16.4629 7.98127C16.7652 8.16208 17.3464 8.40007 17.3929 8.62851C17.4472 8.8712 17.2224 9.20434 17.1062 9.43753C16.7341 10.218 16.3621 10.9366 15.9357 11.6362Z" fill="#231F20"/>
<path d="M10.0068 6.22991C10.0532 6.19182 10.3167 6.13 10.6888 6.23945C10.6888 6.23945 10.247 6.28228 10.2857 6.73442L10.0997 6.71058C10.1075 6.71537 9.91374 6.30607 10.0068 6.22991Z" fill="#F7E4CD"/>
<path d="M13.2146 10.0935C13.2146 10.1601 13.1216 10.2172 13.0131 10.2172C12.9046 10.2172 12.8115 10.1601 12.8115 10.0935C12.8115 10.0268 12.9046 9.96973 13.0131 9.96973C13.1294 9.96973 13.2146 10.0268 13.2146 10.0935ZM13.4161 10.6693C13.4161 10.736 13.3232 10.793 13.2146 10.793C13.1061 10.793 13.0131 10.736 13.0131 10.6693C13.0131 10.6026 13.1061 10.5456 13.2146 10.5456C13.3309 10.5456 13.4161 10.5979 13.4161 10.6693Z" fill="#1D1919"/>
<path d="M2.8597 17.9508C2.79768 17.9556 2.74347 17.9603 2.69692 17.9651C2.65044 17.9699 2.60396 17.9746 2.54194 17.9842C2.47218 17.9937 2.43336 18.0127 2.4179 18.0412C2.40243 18.0698 2.38688 18.0983 2.38688 18.1364V19.2976C2.38687 19.3997 2.3498 19.5005 2.27838 19.5927C2.20863 19.6831 2.1156 19.7545 1.99163 19.8163C1.86759 19.8734 1.72808 19.921 1.5731 19.9496C1.41804 19.9782 1.25525 19.9972 1.08473 19.9972C0.782434 19.9972 0.542236 19.9544 0.35617 19.8639C0.170182 19.7735 0.0771484 19.6545 0.0771484 19.4975C0.0771484 19.4071 0.115893 19.3309 0.201193 19.269C0.286414 19.2072 0.402725 19.1786 0.549969 19.1786C0.689479 19.1786 0.797979 19.2024 0.883279 19.2548C0.968501 19.3071 1.00724 19.369 1.00724 19.4404C1.00724 19.5023 0.968501 19.5642 0.898745 19.6164C0.82899 19.6688 0.743768 19.7212 0.650735 19.764V19.783C0.666202 19.802 0.697213 19.8211 0.74369 19.8354C0.790246 19.8497 0.844457 19.8544 0.891012 19.8544C1.08473 19.8544 1.23979 19.8116 1.34829 19.7259C1.45687 19.6403 1.51108 19.5118 1.51108 19.3405V18.1507C1.51108 18.1174 1.50327 18.0841 1.4878 18.0603C1.47233 18.0365 1.42578 18.0174 1.35602 17.9984C1.30954 17.9842 1.24752 17.9746 1.17777 17.9651C1.10801 17.9556 1.0538 17.9508 1.00724 17.9461V17.8318H2.83643V17.9508H2.8597ZM5.72748 19.5879C5.67327 19.645 5.60352 19.6973 5.52595 19.7497C5.44846 19.802 5.35543 19.8401 5.25466 19.8782C5.14616 19.9163 5.03766 19.9449 4.92916 19.9639C4.82059 19.9829 4.68889 19.9924 4.54938 19.9924C4.3091 19.9924 4.10757 19.9734 3.92931 19.9305C3.75879 19.8877 3.61155 19.8354 3.50305 19.764C3.38674 19.6926 3.30925 19.6117 3.24723 19.5165C3.19072 19.4171 3.16191 19.3125 3.162 19.2072C3.162 19.1073 3.19301 19.0073 3.25496 18.9169C3.31698 18.8265 3.40228 18.7408 3.51078 18.6694C3.61928 18.5981 3.75879 18.5409 3.92931 18.4981C4.10642 18.4537 4.29603 18.431 4.48735 18.4314C4.71216 18.4314 4.89823 18.4505 5.0454 18.4838C5.19272 18.5172 5.30895 18.5647 5.40198 18.6219C5.49494 18.6789 5.55696 18.7456 5.60352 18.8217C5.64226 18.8979 5.66546 18.9788 5.66546 19.0644V19.1596H4.03008C4.03008 19.3642 4.0921 19.5165 4.2238 19.6212C4.34784 19.7259 4.55711 19.7783 4.8284 19.7783C4.98345 19.7783 5.11515 19.7545 5.2392 19.7021C5.36303 19.6507 5.46851 19.5843 5.54923 19.507L5.72748 19.5879V19.5879ZM4.8052 19.0216C4.8052 18.9644 4.79746 18.9026 4.78973 18.8407C4.78192 18.7788 4.76645 18.7265 4.73544 18.6884C4.70443 18.6408 4.6735 18.6075 4.61921 18.5837C4.57273 18.5599 4.51063 18.5504 4.44095 18.5504C4.31691 18.5504 4.21614 18.5885 4.14647 18.6646C4.0689 18.7407 4.03008 18.8645 4.02242 19.0311L4.8052 19.0216ZM9.14557 19.9401H7.68844V19.8306C7.71945 19.8306 7.7582 19.8258 7.79702 19.8211C7.8435 19.8163 7.87443 19.8116 7.89779 19.8068C7.92872 19.7973 7.952 19.7783 7.96746 19.7592C7.98301 19.7402 7.99074 19.7069 7.99074 19.6688V18.974C7.99074 18.8741 7.95973 18.798 7.89779 18.7456C7.83569 18.6933 7.75046 18.6695 7.62642 18.6695C7.5644 18.6695 7.50245 18.6743 7.44816 18.6885C7.39388 18.698 7.33959 18.7171 7.28538 18.7408C7.2389 18.7599 7.20015 18.7789 7.16914 18.8027C7.13813 18.8218 7.11485 18.8408 7.09939 18.8598V19.6546C7.09939 19.6879 7.1072 19.7164 7.12267 19.7402C7.13813 19.7641 7.16914 19.7831 7.20015 19.7926C7.22343 19.8021 7.25437 19.8116 7.29311 19.8164L7.40942 19.8307V19.9401H5.93675V19.8307C5.97549 19.8307 6.01424 19.8259 6.06079 19.8211C6.09954 19.8164 6.13828 19.8116 6.16929 19.8069C6.22358 19.7973 6.25451 19.7783 6.27787 19.7545C6.29334 19.7307 6.3088 19.7022 6.3088 19.6641V18.798C6.3088 18.7694 6.29334 18.7361 6.27006 18.7076C6.24678 18.679 6.20804 18.6552 6.16929 18.6361C6.13828 18.6266 6.10727 18.6124 6.06071 18.6076C6.01329 18.5979 5.96355 18.593 5.91355 18.5933V18.4839L7.06838 18.4458L7.10712 18.4696V18.6838H7.11493C7.17146 18.6552 7.22575 18.625 7.27764 18.5933C7.33473 18.563 7.39422 18.5344 7.4559 18.5077C7.51792 18.4839 7.59541 18.4648 7.68844 18.4458C7.7814 18.4267 7.88997 18.422 7.99847 18.422C8.26203 18.422 8.45575 18.4696 8.58753 18.56C8.7193 18.6504 8.78125 18.7742 8.78125 18.9265V19.6546C8.78125 19.6926 8.78906 19.7212 8.80453 19.7402C8.82007 19.7641 8.85882 19.7783 8.90529 19.7926C8.92857 19.7974 8.95958 19.8069 8.99833 19.8116C9.03707 19.8164 9.07581 19.8211 9.1301 19.8259V19.9401H9.14557ZM12.4784 19.9401H11.3391C11.2189 19.8083 11.0896 19.6796 10.9516 19.5546C10.8352 19.4499 10.7267 19.35 10.626 19.2643L10.4865 19.3405V19.6641C10.4865 19.6973 10.4943 19.7307 10.5097 19.7497C10.5252 19.7735 10.5562 19.7878 10.6105 19.802C10.6415 19.8116 10.6725 19.8163 10.7113 19.8211C10.75 19.8259 10.7888 19.8306 10.8275 19.8306V19.9401H9.32382V19.8306C9.36265 19.8306 9.40139 19.8258 9.44787 19.8211C9.48661 19.8163 9.52536 19.8116 9.55645 19.8068C9.61066 19.7973 9.64159 19.7783 9.66487 19.7545C9.68041 19.7307 9.69588 19.7021 9.69588 19.6641V18.0079C9.69588 17.9746 9.68041 17.9413 9.65713 17.908C9.63386 17.8747 9.60292 17.8461 9.55637 17.8271C9.52536 17.8176 9.47888 17.8033 9.41686 17.7985C9.35483 17.789 9.30062 17.7842 9.24634 17.7842V17.6748L10.4477 17.6367L10.4865 17.6605V19.1929C10.6028 19.1263 10.7423 19.0501 10.8895 18.9645C11.0368 18.8788 11.1608 18.8074 11.246 18.7503C11.3003 18.717 11.3313 18.6932 11.3313 18.6742C11.3391 18.6551 11.3391 18.6456 11.3391 18.6409C11.3391 18.6219 11.3158 18.6076 11.2616 18.5981C11.2073 18.5885 11.1375 18.5742 11.029 18.5647V18.46H12.2536V18.5647C12.0909 18.5933 11.9669 18.6171 11.8816 18.6409C11.7963 18.6647 11.7033 18.698 11.6026 18.736C11.5367 18.7635 11.4721 18.792 11.4088 18.8217C11.3468 18.8502 11.2771 18.8884 11.1918 18.9312C11.3468 19.0739 11.4941 19.2024 11.6258 19.3214C11.7576 19.4404 11.8971 19.5689 12.0444 19.7021C12.0909 19.7497 12.1529 19.7783 12.2304 19.7973C12.3079 19.8116 12.3777 19.8211 12.4552 19.8259V19.94H12.4784V19.9401ZM14.0286 19.9401H12.5017V19.8306C12.5405 19.8306 12.5869 19.8258 12.6257 19.8211C12.6644 19.8163 12.7032 19.8116 12.7264 19.8068C12.7807 19.7973 12.8117 19.7783 12.835 19.7545C12.8582 19.7307 12.866 19.7021 12.866 19.6641V18.7979C12.866 18.7646 12.8505 18.7313 12.8272 18.7075C12.8069 18.6817 12.7745 18.6601 12.7343 18.6456C12.7032 18.6361 12.6644 18.6219 12.6025 18.6123C12.5405 18.6028 12.4862 18.5933 12.4397 18.5933V18.4838L13.6255 18.4457L13.6643 18.4695V19.6498C13.6643 19.6831 13.6798 19.7117 13.703 19.7402C13.7263 19.7641 13.765 19.7831 13.8038 19.7926C13.8348 19.8021 13.8735 19.8116 13.9124 19.8164C13.9511 19.8212 13.9899 19.8259 14.0363 19.8307V19.9401H14.0285L14.0286 19.9401ZM13.6798 17.9175C13.6798 17.9936 13.6333 18.0555 13.5403 18.1078C13.4473 18.1602 13.331 18.1888 13.207 18.1888C13.0752 18.1888 12.9667 18.1602 12.866 18.1078C12.773 18.0555 12.7264 17.9889 12.7264 17.9175C12.7264 17.8414 12.7729 17.7795 12.866 17.7224C12.9589 17.6701 13.0753 17.6415 13.207 17.6415C13.3388 17.6415 13.4473 17.6701 13.5403 17.7224C13.6333 17.7748 13.6798 17.8413 13.6798 17.9175V17.9175ZM17.4467 19.9401H15.9896V19.8306C16.0206 19.8306 16.0593 19.8258 16.0981 19.8211C16.1445 19.8163 16.1755 19.8116 16.1988 19.8068C16.2298 19.7973 16.253 19.7783 16.2686 19.7592C16.284 19.7402 16.2919 19.7069 16.2919 19.6688V18.974C16.2919 18.8741 16.2608 18.798 16.1988 18.7456C16.1368 18.6933 16.0516 18.6695 15.9275 18.6695C15.8655 18.6695 15.8035 18.6743 15.7493 18.6885C15.695 18.7028 15.6407 18.7171 15.5865 18.7408C15.54 18.7599 15.5013 18.7789 15.4703 18.8027C15.4392 18.8218 15.416 18.8408 15.4005 18.8598V19.6546C15.4005 19.6879 15.4082 19.7164 15.4237 19.7402C15.4392 19.7641 15.4703 19.7831 15.5013 19.7926C15.5245 19.8021 15.5555 19.8116 15.5942 19.8164L15.7105 19.8307V19.9401H14.2379V19.8307C14.2766 19.8307 14.3153 19.8259 14.3619 19.8211C14.4006 19.8164 14.4394 19.8116 14.4704 19.8069C14.5246 19.7973 14.5556 19.7783 14.5789 19.7545C14.5944 19.7307 14.6099 19.7022 14.6099 19.6641V18.798C14.6099 18.7694 14.5944 18.7361 14.5712 18.7076C14.5479 18.679 14.5091 18.6552 14.4704 18.6361C14.4394 18.6266 14.4084 18.6124 14.3618 18.6076C14.3144 18.5979 14.2646 18.593 14.2146 18.5933V18.4839L15.3695 18.4458L15.4082 18.4696V18.6838H15.416C15.4726 18.6552 15.5269 18.625 15.5788 18.5933C15.6358 18.563 15.6953 18.5344 15.757 18.5077C15.819 18.4839 15.8965 18.4648 15.9896 18.4458C16.0825 18.4267 16.1911 18.422 16.2996 18.422C16.5631 18.422 16.7569 18.4696 16.8886 18.56C17.0204 18.6504 17.0824 18.7742 17.0824 18.9265V19.6546C17.0824 19.6926 17.0902 19.7212 17.1056 19.7402C17.1212 19.7641 17.1599 19.7783 17.2064 19.7926C17.2297 19.7974 17.2607 19.8069 17.2994 19.8116C17.3382 19.8164 17.3769 19.8211 17.4312 19.8259V19.9401H17.4467ZM18.7875 19.9924C18.6325 19.9924 18.4775 19.9782 18.3303 19.9496C18.183 19.921 18.0667 19.8925 17.9815 19.8592L17.9118 19.9591H17.7257L17.6947 19.4071H17.8729C17.8962 19.4499 17.935 19.5022 17.997 19.5594C18.0513 19.6164 18.121 19.6641 18.1907 19.7116C18.2707 19.7561 18.3592 19.7945 18.4543 19.8259C18.555 19.8544 18.6558 19.8735 18.7644 19.8735C18.9116 19.8735 19.0201 19.8544 19.0899 19.8211C19.1596 19.7878 19.1984 19.7307 19.1984 19.6593C19.1984 19.6212 19.1828 19.5879 19.1518 19.5594C19.1209 19.5356 19.0743 19.5118 19.0201 19.4927C18.9581 19.4737 18.8883 19.4547 18.8108 19.4404C18.7333 19.4261 18.6403 19.4118 18.5318 19.388C18.4233 19.369 18.3303 19.35 18.2527 19.3262C18.1752 19.3071 18.09 19.2738 18.0125 19.231C17.9427 19.1929 17.8808 19.1453 17.842 19.093C17.7955 19.0406 17.78 18.974 17.78 18.8979C17.78 18.7598 17.8729 18.6456 18.0667 18.56C18.2605 18.4743 18.5086 18.4314 18.8186 18.4314C18.9658 18.4314 19.0976 18.441 19.2217 18.46C19.3456 18.4791 19.4464 18.4981 19.5317 18.5219L19.5859 18.4362H19.7719L19.8107 18.9407H19.6402C19.5859 18.836 19.4851 18.7503 19.3534 18.6742C19.2138 18.5981 19.0666 18.56 18.9116 18.56C18.7876 18.56 18.6868 18.5742 18.6171 18.6076C18.5473 18.6409 18.5085 18.6837 18.5085 18.7408C18.5085 18.817 18.5628 18.8693 18.6635 18.9026C18.7643 18.936 18.9116 18.9693 19.0976 18.9978C19.3844 19.0454 19.5936 19.1073 19.7331 19.1834C19.8649 19.2643 19.9347 19.3642 19.9347 19.4832C19.9347 19.645 19.8339 19.7735 19.6246 19.8592C19.3921 19.9448 19.1207 19.9924 18.7875 19.9924Z" fill="black"/>
</g>
<defs>
<clipPath id="clip0_612_515">
<rect width="20" height="20" fill="white"/>
</clipPath>
</defs>
</svg>
