<svg width="307" height="331" viewBox="0 0 307 331" fill="none" xmlns="http://www.w3.org/2000/svg">
<path d="M183.873 118.499H116.199V17.4453H122.784V111.93H177.289V17.4453H183.873V118.499Z" fill="white"/>
<path fill-rule="evenodd" clip-rule="evenodd" d="M183.873 118.499H116.199V17.4453H122.784V111.93H177.289V17.4453H183.873V118.499V118.499Z" stroke="#3D3D3C" stroke-width="1.34038" stroke-linecap="round" stroke-linejoin="round"/>
<path d="M186.068 40.4461H175.094V12.6184C175.094 12.2489 174.793 11.949 174.422 11.948H125.651C125.279 11.9489 124.979 12.2488 124.979 12.6184V40.4461H114.004V12.6184C114.002 6.21402 119.212 1.01658 125.651 1H174.422C180.86 1.01666 186.07 6.21408 186.068 12.6184V40.4461Z" fill="#4F4F5B" stroke="#3D3D3C" stroke-width="1.34038" stroke-linecap="round" stroke-linejoin="round"/>
<path d="M185.838 328.496L184.635 329.379L180.534 329.408" fill="#4F4F5B"/>
<path d="M185.838 328.496L184.635 329.379L180.534 329.408" stroke="#3D3D3C" stroke-width="1.34038" stroke-linecap="round" stroke-linejoin="round"/>
<ellipse cx="183.826" cy="318.461" rx="10.9742" ry="10.948" fill="#4F4F5B" stroke="#3D3D3C" stroke-width="1.34038" stroke-linecap="round" stroke-linejoin="round"/>
<ellipse cx="180.534" cy="318.461" rx="10.9742" ry="10.948" fill="#4F4F5B" stroke="#3D3D3C" stroke-width="1.34038" stroke-linecap="round" stroke-linejoin="round"/>
<ellipse cx="180.534" cy="318.462" rx="5.12128" ry="5.10907" fill="white" stroke="#3D3D3C" stroke-width="1.34038" stroke-linecap="round" stroke-linejoin="round"/>
<path d="M220.296 326L219.093 326.883L214.992 326.912" fill="#4F4F5B"/>
<path d="M220.296 326L219.093 326.883L214.992 326.912" stroke="#3D3D3C" stroke-width="1.34038" stroke-linecap="round" stroke-linejoin="round"/>
<ellipse cx="218.285" cy="315.964" rx="10.9742" ry="10.948" fill="#4F4F5B" stroke="#3D3D3C" stroke-width="1.34038" stroke-linecap="round" stroke-linejoin="round"/>
<ellipse cx="214.992" cy="315.964" rx="10.9742" ry="10.948" fill="#4F4F5B" stroke="#3D3D3C" stroke-width="1.34038" stroke-linecap="round" stroke-linejoin="round"/>
<path d="M101.312 328.496L100.108 329.379L96.0073 329.408" fill="#4F4F5B"/>
<path d="M101.312 328.496L100.108 329.379L96.0073 329.408" stroke="#3D3D3C" stroke-width="1.34038" stroke-linecap="round" stroke-linejoin="round"/>
<ellipse cx="99.2994" cy="318.461" rx="10.9742" ry="10.948" fill="#4F4F5B" stroke="#3D3D3C" stroke-width="1.34038" stroke-linecap="round" stroke-linejoin="round"/>
<ellipse cx="96.0069" cy="318.461" rx="10.9742" ry="10.948" fill="#4F4F5B" stroke="#3D3D3C" stroke-width="1.34038" stroke-linecap="round" stroke-linejoin="round"/>
<ellipse cx="96.007" cy="318.462" rx="5.12128" ry="5.10907" fill="white" stroke="#3D3D3C" stroke-width="1.34038" stroke-linecap="round" stroke-linejoin="round"/>
<path d="M135.77 326L134.567 326.883L130.466 326.912" fill="#4F4F5B"/>
<path d="M135.77 326L134.567 326.883L130.466 326.912" stroke="#3D3D3C" stroke-width="1.34038" stroke-linecap="round" stroke-linejoin="round"/>
<ellipse cx="133.758" cy="315.964" rx="10.9742" ry="10.948" fill="#4F4F5B" stroke="#3D3D3C" stroke-width="1.34038" stroke-linecap="round" stroke-linejoin="round"/>
<ellipse cx="130.465" cy="315.964" rx="10.9742" ry="10.948" fill="#4F4F5B" stroke="#3D3D3C" stroke-width="1.34038" stroke-linecap="round" stroke-linejoin="round"/>
<rect x="103.715" y="88.1875" width="143.761" height="223.704" rx="15.7583" fill="#4F4F5B" stroke="#3D3D3C" stroke-width="1.34038" stroke-linecap="round" stroke-linejoin="round"/>
<path d="M212.322 88.3701H208.298C217.12 88.3829 224.261 95.507 224.248 104.282V296.163C224.261 304.938 217.12 312.062 208.298 312.075H212.322C221.144 312.062 228.285 304.938 228.272 296.163V104.282C228.285 95.5069 221.143 88.3829 212.322 88.3701Z" fill="white" stroke="#3D3D3C" stroke-width="1.34038" stroke-linecap="round" stroke-linejoin="round"/>
<rect x="60.001" y="88.3701" width="143.761" height="223.704" rx="15.7583" fill="#FFA008"/>
<mask id="mask0_596_214" style="mask-type:luminance" maskUnits="userSpaceOnUse" x="60" y="88" width="144" height="225">
<rect x="60.001" y="88.3701" width="143.761" height="223.704" rx="15.7583" fill="white"/>
</mask>
<g mask="url(#mask0_596_214)">
<rect x="50.5771" y="83.8086" width="143.761" height="223.704" rx="15.7583" fill="#FFCD07"/>
</g>
<rect x="60.001" y="88.3701" width="143.761" height="223.704" rx="15.7583" stroke="#3D3D3C" stroke-width="1.34038" stroke-linecap="round" stroke-linejoin="round"/>
<path d="M81.7847 290.248H181.921V290.405C181.921 295.312 177.922 299.29 172.989 299.29H90.717C85.7838 299.29 81.7847 295.312 81.7847 290.405V290.248V290.248Z" fill="#FFA008"/>
<path d="M86.5719 99.1328C85.7947 99.1339 85.0497 99.4422 84.5009 99.9897C83.9521 100.537 83.6444 101.279 83.6455 102.052V278.699C83.6455 280.306 84.9557 281.609 86.5719 281.609C88.1882 281.609 89.4984 280.306 89.4984 278.699V102.052C89.5007 100.442 88.1905 99.1352 86.5719 99.1328Z" fill="#FFA008"/>
<path d="M99.5094 99.1328C97.8909 99.1352 96.5807 100.442 96.583 102.052V278.699C96.583 280.306 97.8932 281.609 99.5094 281.609C101.126 281.609 102.436 280.306 102.436 278.699V102.052C102.437 101.279 102.129 100.537 101.581 99.9897C101.032 99.4422 100.287 99.1339 99.5094 99.1328Z" fill="#FFA008"/>
<path d="M112.447 99.1328C111.67 99.1339 110.925 99.4422 110.376 99.9897C109.827 100.537 109.519 101.279 109.521 102.052V278.699C109.519 279.472 109.827 280.214 110.376 280.761C110.925 281.309 111.67 281.617 112.447 281.618C113.224 281.617 113.969 281.309 114.518 280.761C115.067 280.214 115.375 279.472 115.373 278.699V102.052C115.375 101.279 115.067 100.537 114.518 99.9897C113.969 99.4422 113.224 99.1339 112.447 99.1328V99.1328Z" fill="#FFA008"/>
<path d="M125.384 99.1328C123.766 99.1352 122.456 100.442 122.458 102.052V278.699C122.458 280.306 123.768 281.609 125.384 281.609C127.001 281.609 128.311 280.306 128.311 278.699V102.052C128.312 101.279 128.004 100.537 127.456 99.9897C126.907 99.4422 126.162 99.1339 125.384 99.1328Z" fill="#FFA008"/>
<path d="M138.322 99.1328C137.545 99.1339 136.8 99.4422 136.251 99.9897C135.702 100.537 135.394 101.279 135.396 102.052V278.699C135.396 280.306 136.706 281.609 138.322 281.609C139.938 281.609 141.248 280.306 141.248 278.699V102.052C141.251 100.442 139.941 99.1352 138.322 99.1328Z" fill="#FFA008"/>
<path d="M151.259 99.1328C149.641 99.1352 148.331 100.442 148.333 102.052V278.699C148.333 280.306 149.643 281.609 151.259 281.609C152.876 281.609 154.186 280.306 154.186 278.699V102.052C154.187 101.279 153.879 100.537 153.331 99.9897C152.782 99.4422 152.037 99.1339 151.259 99.1328Z" fill="#FFA008"/>
<path d="M164.197 99.1328C162.578 99.1352 161.268 100.442 161.271 102.052V278.699C161.271 280.306 162.581 281.609 164.197 281.609C165.813 281.609 167.123 280.306 167.123 278.699V102.052C167.125 101.279 166.817 100.537 166.268 99.9897C165.719 99.4422 164.974 99.1339 164.197 99.1328Z" fill="#FFA008"/>
<path d="M177.134 99.1328C176.357 99.1339 175.612 99.4422 175.063 99.9897C174.515 100.537 174.207 101.279 174.208 102.052V278.699C174.208 280.306 175.518 281.609 177.134 281.609C178.751 281.609 180.061 280.306 180.061 278.699V102.052C180.063 100.442 178.753 99.1352 177.134 99.1328Z" fill="#FFA008"/>
<path d="M220.174 174.256H218.607C217.524 174.257 216.648 175.131 216.65 176.208V187.446C216.649 187.964 216.855 188.46 217.222 188.826C217.589 189.192 218.087 189.398 218.607 189.399H220.174C220.694 189.398 221.192 189.192 221.559 188.826C221.926 188.46 222.132 187.964 222.131 187.446V176.208C222.132 175.691 221.926 175.195 221.559 174.829C221.192 174.463 220.694 174.257 220.174 174.256V174.256Z" fill="#4F4F5B" stroke="#3D3D3C" stroke-width="1.34038" stroke-linecap="round" stroke-linejoin="round"/>
<path d="M220.174 211.046H218.607C218.087 211.047 217.589 211.253 217.222 211.619C216.855 211.985 216.649 212.481 216.65 212.998V224.237C216.648 225.313 217.524 226.187 218.607 226.189H220.174C220.694 226.188 221.192 225.982 221.559 225.616C221.926 225.25 222.132 224.754 222.131 224.237V212.998C222.132 212.481 221.926 211.985 221.559 211.619C221.192 211.253 220.694 211.047 220.174 211.046Z" fill="#4F4F5B" stroke="#3D3D3C" stroke-width="1.34038" stroke-linecap="round" stroke-linejoin="round"/>
<path d="M225.555 178.363H218.717V185.21H225.555C225.787 185.21 225.975 185.398 225.975 185.629V216.056C225.975 216.287 225.787 216.475 225.555 216.476H218.717V223.322H225.555C229.581 223.312 232.839 220.061 232.838 216.056V185.629C232.839 181.624 229.581 178.374 225.555 178.363Z" fill="#CFCFD0" stroke="#3D3D3C" stroke-width="1.34038" stroke-linecap="round" stroke-linejoin="round"/>
<path d="M203.558 154.226L176.095 180.229L174.394 179.784L203.558 152.499L203.558 154.226Z" fill="black"/>
<path d="M145.348 181.416L113.566 181.255L113.025 179.77L147.059 179.594L145.348 181.416Z" fill="black"/>
<rect x="137.001" y="167" width="43" height="25" rx="7" fill="#7894CA"/>
<ellipse cx="150.501" cy="181" rx="9.5" ry="9" fill="#4F4F5B" stroke="#3D3D3C" stroke-width="1.34038" stroke-linecap="round" stroke-linejoin="round"/>
<ellipse cx="152.122" cy="183.109" rx="5.12128" ry="5.10907" fill="white" stroke="#3D3D3C" stroke-width="1.34038" stroke-linecap="round" stroke-linejoin="round"/>
<path d="M60.5 152.499L79.7281 178.278L78.9999 179.999L60.4999 154.499L60.5 152.499Z" fill="black"/>
<rect x="78.001" y="167" width="43" height="25" rx="7" fill="#7894CA"/>
<ellipse cx="108.501" cy="180" rx="9.5" ry="9" fill="#4F4F5B" stroke="#3D3D3C" stroke-width="1.34038" stroke-linecap="round" stroke-linejoin="round"/>
<ellipse cx="110.122" cy="182.109" rx="5.12128" ry="5.10907" fill="white" stroke="#3D3D3C" stroke-width="1.34038" stroke-linecap="round" stroke-linejoin="round"/>
<path d="M63.3826 221.075L82.0613 243.755L96.7515 236.199L69.5403 217.908L63.3826 221.075Z" fill="white" stroke="#3D3D3C" stroke-width="1.34038" stroke-linecap="round" stroke-linejoin="round"/>
<path d="M195.69 199.758C186.638 195.111 177.048 194.89 168.798 199.137L82.0613 243.756C84.8998 251.261 85.7653 253.576 91.5368 256.549L202.411 201.157C199.294 198.683 199.829 201.883 195.69 199.758Z" fill="white"/>
<mask id="mask1_596_214" style="mask-type:luminance" maskUnits="userSpaceOnUse" x="82" y="196" width="121" height="61">
<path fill-rule="evenodd" clip-rule="evenodd" d="M195.69 199.758C186.638 195.111 177.048 194.89 168.798 199.137L82.0613 243.756C84.8998 251.261 85.7653 253.576 91.5368 256.549L202.411 201.157C199.294 198.683 199.829 201.883 195.69 199.758Z" fill="white"/>
</mask>
<g mask="url(#mask1_596_214)">
<path d="M137.621 211.307L141.658 214.494C147.415 219.041 154.095 220.066 159.74 217.269L206.8 193.931L183.178 176.11L143.579 209.535L137.621 211.307Z" fill="#CFCFD0"/>
<path fill-rule="evenodd" clip-rule="evenodd" d="M137.621 211.307L141.658 214.494C147.415 219.041 154.095 220.066 159.74 217.269L206.8 193.931L183.178 176.11L143.579 209.535L137.621 211.307Z" stroke="#3D3D3C" stroke-width="1.34038" stroke-linecap="round" stroke-linejoin="round"/>
</g>
<path fill-rule="evenodd" clip-rule="evenodd" d="M195.69 199.758C186.638 195.111 177.048 194.89 168.798 199.137L82.0613 243.756V243.756C84.8998 251.261 85.7653 253.576 91.5368 256.549L202.411 201.157C199.294 198.683 199.829 201.883 195.69 199.758Z" stroke="#3D3D3C" stroke-width="1.34038" stroke-linecap="round" stroke-linejoin="round"/>
<path d="M93.4934 215.18L99.9222 211.873C102.233 210.685 104.865 210.525 107.461 211.414L151.124 226.778L125.259 239.831L93.7024 219.105C92.3762 218.234 92.2477 215.821 93.4934 215.18Z" fill="white" stroke="#3D3D3C" stroke-width="1.34038" stroke-linecap="round" stroke-linejoin="round"/>
<path d="M171.488 203.074L170.289 204.95" stroke="#3D3D3C" stroke-width="1.34038" stroke-linecap="round" stroke-linejoin="round"/>
<path d="M101.666 245.322L97.6403 249.118" stroke="#3D3D3C" stroke-width="1.34038" stroke-linecap="round" stroke-linejoin="round"/>
<path d="M305.494 168.756C302.139 151.419 282.106 142.747 248.5 143C243.604 143.036 253.818 142.589 248.5 143C248.5 177 248.5 168.5 248.5 168.5C248.5 168.5 290.546 166.084 291.923 173.198C293.3 180.312 280.169 196.164 252.74 213.879C231.023 227.906 200.347 243.099 160.769 256.052C121.191 269.005 88.6392 274.504 64.4019 275.517C33.7924 276.796 17.8778 272.112 16.5 264.999C15.1238 257.885 32.5715 238.215 60 220.499C59.8087 213.589 59.8325 204.36 60.5 197.5C55.6666 200.411 45.5229 208.29 41.1979 211.272C11.5033 231.735 -1.85014 250.905 1.50591 268.242C4.86184 285.58 23.6035 294.246 57.2097 293.994C62.1052 293.957 67.2468 293.713 72.564 293.302C99.4705 291.223 131.357 284.443 164.185 273.7C197.013 262.956 227.567 249.3 252.026 234.57C256.859 231.658 261.477 228.709 265.803 225.728C295.497 205.263 308.85 186.093 305.494 168.756Z" fill="#3D3D3C"/>
<path fill-rule="evenodd" clip-rule="evenodd" d="M305.494 168.754C302.139 151.417 283.397 142.75 249.791 143.002C244.895 143.039 251.818 139.089 246.5 139.5C249.586 145.133 245.154 161.296 247.5 167.5C278.11 166.221 290.546 166.082 291.923 173.196C293.3 180.31 280.169 196.162 252.74 213.877C231.023 227.904 200.347 243.097 160.769 256.05C121.191 269.002 88.6392 274.502 64.402 275.515C33.7924 276.794 16.455 270.912 15.0772 263.799C13.701 256.685 32.5715 236.213 60 218.497C59.8087 211.587 59.3325 205.357 60 198.497C55.1666 201.408 45.5229 208.287 41.1979 211.27C11.5033 231.733 -1.85014 250.903 1.50591 268.24C4.86184 285.578 23.6035 294.244 57.2097 293.992C62.1052 293.955 67.2468 293.711 72.564 293.299C99.4705 291.221 131.357 284.441 164.185 273.698C197.013 262.954 227.567 249.298 252.026 234.568C256.859 231.656 261.477 228.707 265.803 225.726C295.497 205.261 308.85 186.091 305.494 168.754Z" stroke="#4F4F5B" stroke-width="1.34038" stroke-linecap="round" stroke-linejoin="round"/>
<path d="M102.648 276.762C102.856 277.528 102.848 278.284 102.625 279.031C102.402 279.778 101.967 280.457 101.321 281.068C100.674 281.678 99.8379 282.161 98.8125 282.517L99.1147 285.931C99.2291 287.244 98.7863 288.036 97.7865 288.307C97.237 288.456 96.6841 288.432 96.1277 288.235C95.5803 288.035 95.0766 287.64 94.6166 287.049C94.1566 286.458 93.7946 285.677 93.5308 284.704C93.0348 282.875 92.9073 281.246 93.1484 279.817C93.396 278.377 93.9297 277.207 94.7495 276.308C95.5759 275.397 96.5882 274.779 97.7862 274.454C98.633 274.225 99.3894 274.179 100.056 274.318C100.731 274.454 101.287 274.738 101.723 275.171C102.166 275.592 102.474 276.123 102.648 276.762ZM98.6782 281.059C100.461 280.324 101.124 279.114 100.668 277.43C100.506 276.835 100.177 276.407 99.6809 276.145C99.191 275.872 98.5361 275.847 97.7164 276.069C96.7886 276.321 96.0573 276.833 95.5225 277.607C94.9967 278.378 94.6863 279.337 94.5914 280.485C94.5031 281.621 94.6397 282.856 95.0013 284.189C95.1527 284.747 95.3411 285.228 95.5665 285.631C95.8009 286.032 96.0366 286.33 96.2737 286.527C96.5174 286.713 96.7203 286.783 96.8825 286.739C97.1077 286.678 97.1945 286.321 97.1431 285.668L96.8963 282.993C96.5304 283.034 96.3711 283.053 96.4186 283.05C96.1361 283.078 95.9385 283.045 95.8257 282.95C95.7104 282.846 95.6271 282.699 95.5758 282.51C95.522 282.312 95.5333 282.139 95.6097 281.993C95.695 281.844 95.8368 281.743 96.0349 281.689C96.125 281.665 96.1938 281.651 96.2413 281.648C96.4673 281.625 96.64 281.602 96.7596 281.58C96.6861 280.845 96.5974 279.859 96.4936 278.62C96.4645 278.299 96.5275 278.05 96.6825 277.872C96.844 277.684 97.0554 277.554 97.3166 277.483C97.6139 277.402 97.8414 277.403 97.9993 277.486C98.1637 277.558 98.2789 277.715 98.3449 277.958C98.384 278.102 98.4068 278.222 98.4132 278.317L98.6782 281.059ZM109.537 280.304C109.654 280.273 109.759 280.302 109.851 280.393C109.953 280.482 110.029 280.621 110.08 280.81C110.178 281.17 110.168 281.473 110.051 281.717C109.793 282.3 109.476 282.806 109.099 283.237C108.732 283.666 108.26 283.958 107.684 284.114C106.891 284.329 106.203 284.129 105.62 283.514C105.047 282.896 104.605 282.014 104.294 280.87C103.996 279.772 103.796 278.482 103.694 277.001C103.601 275.517 103.693 274.197 103.969 273.039C104.254 271.878 104.779 271.194 105.545 270.987C105.977 270.869 106.37 270.98 106.723 271.32C107.083 271.648 107.364 272.185 107.567 272.933C107.857 274.005 107.897 275.329 107.686 276.904C107.475 278.48 107.049 280.099 106.407 281.762C106.571 282.115 106.746 282.352 106.934 282.475C107.12 282.589 107.33 282.615 107.564 282.551C107.934 282.451 108.23 282.259 108.453 281.977C108.673 281.685 108.93 281.223 109.223 280.593C109.297 280.437 109.402 280.341 109.537 280.304ZM105.61 272.405C105.403 272.461 105.27 272.898 105.212 273.717C105.153 274.535 105.175 275.526 105.278 276.687C105.38 277.849 105.56 278.941 105.818 279.964C106.172 278.737 106.395 277.545 106.487 276.388C106.577 275.223 106.504 274.203 106.267 273.329C106.081 272.645 105.862 272.336 105.61 272.405ZM111.189 283.164C110.63 283.315 110.129 283.233 109.686 282.919C109.243 282.604 108.932 282.117 108.754 281.46C108.558 280.739 108.54 280.014 108.7 279.284C108.858 278.545 109.159 277.907 109.603 277.371C110.054 276.823 110.59 276.465 111.212 276.296C111.41 276.242 111.552 276.248 111.637 276.312C111.728 276.364 111.823 276.483 111.922 276.669C112.102 276.582 112.295 276.51 112.502 276.454C112.943 276.334 113.207 276.432 113.292 276.747C113.344 276.936 113.398 277.405 113.456 278.153C113.53 279.246 113.622 279.994 113.732 280.4C113.768 280.535 113.829 280.634 113.914 280.698C114.008 280.76 114.109 280.776 114.218 280.747C114.389 280.7 114.567 280.536 114.751 280.254C114.933 279.963 115.164 279.513 115.444 278.905C115.518 278.75 115.623 278.654 115.758 278.617C115.875 278.585 115.98 278.615 116.072 278.706C116.173 278.795 116.25 278.933 116.301 279.123C116.399 279.483 116.389 279.785 116.272 280.03C116.027 280.59 115.74 281.083 115.411 281.511C115.082 281.938 114.724 282.205 114.337 282.31C114.04 282.39 113.738 282.366 113.432 282.236C113.133 282.095 112.872 281.866 112.651 281.549C112.388 282.432 111.9 282.971 111.189 283.164ZM111.305 281.667C111.503 281.613 111.661 281.445 111.777 281.162C111.894 280.879 111.94 280.533 111.916 280.123L111.742 277.502C111.366 277.613 111.054 277.853 110.805 278.22C110.563 278.575 110.409 279.004 110.342 279.506C110.275 280.008 110.31 280.511 110.446 281.015C110.522 281.294 110.632 281.487 110.777 281.593C110.931 281.696 111.107 281.721 111.305 281.667ZM116.833 281.633C116.491 281.726 116.199 281.612 115.957 281.29C115.724 280.967 115.5 280.408 115.285 279.616C114.967 278.445 114.832 277.287 114.88 276.143C114.89 275.86 114.969 275.635 115.118 275.469C115.273 275.292 115.517 275.158 115.85 275.067C116.03 275.018 116.162 275.007 116.247 275.032C116.331 275.058 116.39 275.134 116.424 275.26C116.463 275.404 116.484 275.746 116.486 276.287C116.493 276.672 116.507 277.007 116.526 277.292C116.545 277.577 116.591 277.922 116.662 278.328C116.749 277.473 116.911 276.752 117.149 276.166C117.386 275.579 117.652 275.134 117.948 274.832C118.252 274.527 118.552 274.334 118.85 274.254C119.138 274.176 119.375 274.193 119.56 274.307C119.753 274.41 119.888 274.605 119.966 274.894C120.03 275.128 120.1 275.583 120.177 276.258C120.236 276.832 120.305 277.374 120.386 277.884C120.463 278.385 120.584 278.938 120.748 279.541C120.841 279.883 120.836 280.151 120.733 280.343C120.637 280.524 120.432 280.657 120.116 280.742C119.819 280.823 119.582 280.805 119.405 280.689C119.229 280.572 119.099 280.361 119.016 280.054C118.918 279.694 118.82 279.082 118.721 278.22C118.634 277.47 118.563 276.996 118.51 276.797C118.471 276.653 118.401 276.595 118.302 276.622C118.185 276.653 118.06 276.852 117.927 277.217C117.8 277.57 117.692 278.025 117.601 278.581C117.519 279.136 117.485 279.706 117.499 280.292C117.515 280.742 117.476 281.062 117.382 281.252C117.295 281.43 117.112 281.557 116.833 281.633ZM126.954 278.888C126.611 278.981 126.319 278.867 126.077 278.545C125.845 278.222 125.621 277.664 125.406 276.871C125.088 275.7 124.953 274.542 125 273.398C125.011 273.115 125.09 272.89 125.238 272.724C125.393 272.547 125.637 272.413 125.971 272.322C126.151 272.273 126.283 272.262 126.367 272.287C126.452 272.313 126.511 272.389 126.545 272.515C126.584 272.659 126.605 273.001 126.606 273.542C126.614 273.927 126.627 274.262 126.647 274.547C126.663 274.823 126.708 275.164 126.779 275.57C126.832 274.801 126.959 274.129 127.16 273.552C127.37 272.973 127.619 272.518 127.907 272.189C128.202 271.848 128.506 271.635 128.822 271.549C129.137 271.464 129.377 271.476 129.542 271.586C129.717 271.693 129.844 271.896 129.925 272.193C130.003 272.481 130.059 273.027 130.093 273.83C130.109 274.174 130.125 274.43 130.142 274.6C130.292 273.37 130.573 272.428 130.986 271.774C131.399 271.121 131.844 270.729 132.321 270.6C132.907 270.441 133.279 270.654 133.438 271.24C133.533 271.591 133.606 272.253 133.657 273.226C133.699 274.056 133.753 274.597 133.822 274.849C133.92 275.21 134.099 275.354 134.36 275.283C134.54 275.235 134.723 275.069 134.907 274.787C135.099 274.493 135.334 274.043 135.614 273.435C135.688 273.279 135.793 273.183 135.928 273.147C136.045 273.115 136.149 273.144 136.242 273.235C136.343 273.324 136.42 273.463 136.471 273.652C136.569 274.012 136.559 274.315 136.441 274.559C136.184 275.142 135.871 275.647 135.504 276.076C135.145 276.502 134.682 276.792 134.115 276.946C133.655 277.07 133.273 277.034 132.968 276.836C132.661 276.629 132.439 276.274 132.302 275.769C132.233 275.517 132.174 275.05 132.124 274.367C132.088 273.767 132.04 273.36 131.981 273.144C131.942 272.999 131.873 272.941 131.774 272.968C131.657 272.999 131.532 273.198 131.399 273.563C131.263 273.919 131.154 274.374 131.073 274.928C130.991 275.482 130.957 276.052 130.971 276.638C130.989 277.097 130.95 277.417 130.854 277.598C130.767 277.776 130.579 277.905 130.291 277.983C129.994 278.063 129.731 277.985 129.502 277.747C129.28 277.498 129.113 277.171 129.003 276.765C128.911 276.423 128.821 275.915 128.735 275.242C128.651 274.646 128.585 274.258 128.536 274.078C128.497 273.934 128.428 273.875 128.328 273.902C128.193 273.939 128.066 274.147 127.947 274.528C127.828 274.908 127.737 275.378 127.676 275.936C127.624 276.492 127.605 277.029 127.62 277.547C127.636 277.997 127.597 278.317 127.503 278.507C127.416 278.685 127.233 278.812 126.954 278.888ZM139.052 268.774C139.259 268.718 139.411 268.706 139.506 268.738C139.602 268.77 139.667 268.849 139.701 268.975C139.76 269.192 139.852 269.994 139.977 271.381C140.114 272.707 140.196 273.493 140.224 273.737C140.518 276.142 140.556 278.1 140.337 279.61C140.118 281.12 139.522 282.007 138.549 282.271C138.09 282.395 137.677 282.352 137.311 282.142C136.947 281.941 136.702 281.611 136.578 281.152C136.463 280.728 136.44 280.27 136.51 279.778C136.588 279.282 136.81 278.676 137.176 277.957C137.554 277.246 138.125 276.39 138.888 275.39L138.844 275.068C138.817 274.718 138.76 274.221 138.672 273.577C138.668 274.275 138.55 274.839 138.318 275.269C138.085 275.69 137.788 275.95 137.427 276.047C137.022 276.157 136.638 276.063 136.277 275.764C135.922 275.455 135.669 275.02 135.518 274.462C135.334 273.786 135.212 273.157 135.151 272.574C135.087 271.982 135.073 271.343 135.109 270.656C135.126 270.361 135.199 270.134 135.33 269.972C135.46 269.811 135.701 269.683 136.052 269.588C136.251 269.534 136.394 269.529 136.483 269.573C136.582 269.614 136.648 269.697 136.682 269.823C136.702 269.895 136.718 270.152 136.731 270.593C136.732 270.951 136.741 271.272 136.761 271.557C136.789 271.946 136.822 272.319 136.861 272.676C136.897 273.024 136.945 273.306 137.003 273.522C137.096 273.864 137.237 274.01 137.426 273.959C137.562 273.922 137.692 273.742 137.816 273.418C137.95 273.091 138.055 272.623 138.132 272.012C138.217 271.399 138.259 270.663 138.257 269.802C138.256 269.512 138.312 269.289 138.424 269.133C138.545 268.975 138.755 268.855 139.052 268.774ZM138.343 280.92C138.568 280.858 138.749 280.529 138.887 279.931C139.024 279.332 139.068 278.387 139.017 277.096C138.482 277.869 138.122 278.538 137.936 279.1C137.762 279.67 137.724 280.135 137.821 280.495C137.863 280.648 137.924 280.767 138.005 280.852C138.095 280.934 138.207 280.956 138.343 280.92ZM153.349 259.616C153.643 259.595 153.876 259.633 154.048 259.732C154.229 259.828 154.344 259.966 154.392 260.146C154.473 260.443 154.446 260.683 154.312 260.864C154.186 261.043 153.94 261.168 153.572 261.239C152.744 261.396 152.098 261.527 151.634 261.634C151.176 261.729 150.577 261.872 149.836 262.064C149.952 263.811 150.098 265.561 150.273 267.312C150.34 267.952 150.429 268.691 150.541 269.531C150.65 270.362 150.754 271.03 150.852 271.536C150.905 271.802 150.852 272.034 150.693 272.232C150.532 272.421 150.311 272.553 150.032 272.629C149.735 272.709 149.485 272.699 149.284 272.599C149.083 272.499 148.951 272.332 148.887 272.098C148.828 271.882 148.763 271.517 148.692 271.005C148.627 270.481 148.566 269.932 148.507 269.358C148.457 268.781 148.404 268.283 148.348 267.863C148.261 267.152 148.189 266.441 148.132 265.731C148.075 265.022 148.028 264.348 147.99 263.71C147.981 263.568 147.971 263.406 147.96 263.225C147.947 263.035 147.934 262.826 147.921 262.597C147.045 262.864 146.371 263.124 145.898 263.378C145.426 263.632 145.111 263.896 144.953 264.171C144.802 264.435 144.772 264.733 144.862 265.066C144.945 265.372 145.115 265.641 145.371 265.871C145.424 265.924 145.46 265.987 145.48 266.059C145.526 266.23 145.466 266.421 145.301 266.63C145.142 266.828 144.954 266.956 144.738 267.015C144.585 267.056 144.446 267.045 144.323 266.982C144.101 266.878 143.894 266.702 143.701 266.454C143.506 266.198 143.359 265.89 143.262 265.529C143.054 264.764 143.135 264.084 143.506 263.49C143.884 262.885 144.552 262.336 145.511 261.844C146.48 261.349 147.765 260.884 149.369 260.449C150.36 260.181 151.153 259.985 151.748 259.862C152.352 259.737 152.886 259.655 153.349 259.616ZM155.666 271.1C155.324 271.193 155.032 271.079 154.79 270.758C154.557 270.434 154.333 269.876 154.118 269.083C153.801 267.912 153.666 266.755 153.713 265.61C153.723 265.327 153.803 265.102 153.951 264.936C154.106 264.759 154.35 264.625 154.683 264.535C154.863 264.486 154.996 264.474 155.08 264.5C155.164 264.525 155.224 264.601 155.258 264.727C155.297 264.871 155.317 265.214 155.319 265.755C155.327 266.14 155.34 266.475 155.359 266.759C155.378 267.044 155.424 267.39 155.495 267.796C155.582 266.941 155.745 266.22 155.982 265.633C156.22 265.046 156.486 264.602 156.781 264.299C157.085 263.995 157.386 263.802 157.683 263.721C158.268 263.562 158.641 263.776 158.799 264.361C158.831 264.478 158.868 264.773 158.909 265.245C158.934 265.625 158.959 265.86 158.984 265.95C159.069 266.266 159.225 266.393 159.45 266.332C159.702 266.263 159.973 265.977 160.262 265.473C160.347 265.324 160.453 265.233 160.579 265.199C160.696 265.167 160.801 265.197 160.893 265.288C160.992 265.367 161.065 265.492 161.111 265.664C161.201 265.997 161.182 266.283 161.053 266.521C160.872 266.85 160.636 267.156 160.345 267.438C160.06 267.709 159.729 267.895 159.351 267.998C158.873 268.127 158.475 268.105 158.157 267.93C157.848 267.753 157.637 267.457 157.525 267.042C157.488 266.907 157.465 266.768 157.455 266.626C157.425 266.441 157.401 266.317 157.383 266.254C157.344 266.11 157.275 266.051 157.176 266.078C157.041 266.115 156.902 266.317 156.76 266.684C156.625 267.04 156.516 267.495 156.434 268.049C156.352 268.603 156.319 269.173 156.332 269.759C156.348 270.21 156.309 270.53 156.216 270.719C156.129 270.898 155.946 271.025 155.666 271.1ZM160.658 261.957C160.28 262.06 159.973 262.051 159.737 261.931C159.499 261.802 159.337 261.58 159.252 261.265C159.166 260.95 159.217 260.655 159.404 260.382C159.598 260.098 159.879 259.905 160.248 259.805C160.582 259.715 160.874 259.722 161.125 259.828C161.376 259.934 161.542 260.136 161.623 260.433C161.72 260.794 161.682 261.114 161.506 261.393C161.328 261.664 161.045 261.852 160.658 261.957ZM162.518 269.242C161.932 269.401 161.448 269.31 161.066 268.969C160.692 268.625 160.412 268.111 160.227 267.427C160.117 267.021 160.026 266.49 159.954 265.832C159.889 265.163 159.862 264.532 159.875 263.939C159.878 263.629 159.933 263.401 160.039 263.256C160.144 263.112 160.346 262.999 160.643 262.918C161.103 262.794 161.374 262.885 161.457 263.191C161.518 263.416 161.574 263.962 161.625 264.828C161.678 265.877 161.752 266.578 161.847 266.929C161.92 267.199 162.012 267.397 162.124 267.521C162.235 267.646 162.376 267.685 162.547 267.639C162.709 267.595 162.881 267.427 163.064 267.136C163.246 266.845 163.473 266.401 163.747 265.805C163.821 265.649 163.925 265.553 164.06 265.516C164.177 265.485 164.282 265.514 164.375 265.605C164.476 265.694 164.552 265.833 164.604 266.022C164.701 266.382 164.691 266.685 164.574 266.929C163.978 268.261 163.293 269.032 162.518 269.242ZM168.396 263.151C168.589 263.863 168.605 264.584 168.445 265.313C168.292 266.032 167.995 266.664 167.553 267.209C167.12 267.752 166.595 268.117 165.978 268.304C166.333 270.074 166.46 271.596 166.361 272.871C166.264 274.154 165.815 274.904 165.013 275.122C164.527 275.254 164.119 275.176 163.789 274.888C163.46 274.6 163.211 274.146 163.042 273.524C162.803 272.641 162.726 271.555 162.811 270.265C162.899 268.984 163.174 267.522 163.637 265.878C163.281 264.563 163.024 263.651 162.867 263.142C162.787 262.883 162.834 262.648 163.009 262.436C163.183 262.225 163.433 262.075 163.757 261.987C163.946 261.935 164.092 261.939 164.195 261.998C164.305 262.046 164.395 262.181 164.465 262.404C164.526 262.629 164.576 262.795 164.614 262.9C164.805 262.462 165.019 262.128 165.257 261.899C165.492 261.661 165.767 261.5 166.082 261.414C166.587 261.277 167.052 261.369 167.477 261.689C167.911 262.006 168.217 262.494 168.396 263.151ZM165.694 266.988C165.999 266.828 166.248 266.572 166.443 266.219C166.644 265.855 166.769 265.444 166.819 264.986C166.866 264.518 166.828 264.055 166.703 263.596C166.63 263.325 166.521 263.137 166.376 263.032C166.229 262.917 166.065 262.884 165.885 262.933C165.561 263.021 165.262 263.469 164.988 264.278C165.086 264.677 165.24 265.259 165.447 266.025C165.56 266.439 165.642 266.76 165.694 266.988ZM164.762 273.768C165.005 273.702 165.064 273.116 164.938 272.009C164.814 270.911 164.561 269.568 164.179 267.979C164.035 268.985 163.963 269.929 163.96 270.809C163.957 271.69 164.031 272.41 164.183 272.968C164.261 273.257 164.357 273.467 164.47 273.601C164.575 273.737 164.672 273.793 164.762 273.768Z" fill="white"/>
</svg>
