<svg width="198" height="213" viewBox="0 0 198 213" fill="none" xmlns="http://www.w3.org/2000/svg">
<mask id="mask0_308_382" style="mask-type:luminance" maskUnits="userSpaceOnUse" x="107" y="81" width="21" height="25">
<path d="M107.066 81.5205H127.518V105.113H107.066V81.5205Z" fill="white"/>
</mask>
<g mask="url(#mask0_308_382)">
<mask id="mask1_308_382" style="mask-type:luminance" maskUnits="userSpaceOnUse" x="107" y="81" width="21" height="25">
<path d="M117.292 81.5205C111.644 81.5205 107.066 86.7838 107.066 93.2749C107.066 99.7684 111.644 105.029 117.292 105.029C122.941 105.029 127.518 99.7684 127.518 93.2749C127.518 86.7838 122.941 81.5205 117.292 81.5205Z" fill="white"/>
</mask>
<g mask="url(#mask1_308_382)">
<path d="M107.066 81.5205H127.518V105.029H107.066V81.5205Z" fill="#38B6FF"/>
</g>
</g>
<mask id="mask2_308_382" style="mask-type:luminance" maskUnits="userSpaceOnUse" x="66" y="47" width="35" height="30">
<path d="M66.3037 47.9663H100.834V76.5766H66.3037V47.9663Z" fill="white"/>
</mask>
<g mask="url(#mask2_308_382)">
<mask id="mask3_308_382" style="mask-type:luminance" maskUnits="userSpaceOnUse" x="66" y="47" width="35" height="30">
<path d="M83.5395 47.9663C74.0213 47.9663 66.3037 54.3696 66.3037 62.2714C66.3037 70.1732 74.0213 76.5766 83.5395 76.5766C93.0578 76.5766 100.775 70.1732 100.775 62.2714C100.775 54.3696 93.0578 47.9663 83.5395 47.9663Z" fill="white"/>
</mask>
<g mask="url(#mask3_308_382)">
<path d="M66.3037 47.9663H100.726V76.5766H66.3037V47.9663Z" fill="#38B6FF"/>
</g>
</g>
<mask id="mask4_308_382" style="mask-type:luminance" maskUnits="userSpaceOnUse" x="55" y="106" width="39" height="38">
<path d="M55.6523 106.974H93.1094V143.243H55.6523V106.974Z" fill="white"/>
</mask>
<g mask="url(#mask4_308_382)">
<mask id="mask5_308_382" style="mask-type:luminance" maskUnits="userSpaceOnUse" x="55" y="106" width="39" height="38">
<path d="M74.3685 106.974C64.0329 106.974 55.6523 115.093 55.6523 125.109C55.6523 135.124 64.0329 143.243 74.3685 143.243C84.7065 143.243 93.087 135.124 93.087 125.109C93.087 115.093 84.7065 106.974 74.3685 106.974Z" fill="white"/>
</mask>
<g mask="url(#mask5_308_382)">
<path d="M55.6523 106.974H93.1094V143.243H55.6523V106.974Z" fill="#38B6FF"/>
</g>
</g>
<mask id="mask6_308_382" style="mask-type:luminance" maskUnits="userSpaceOnUse" x="74" y="81" width="34" height="9">
<path d="M74.3682 81.5161H107.071V89.4179H74.3682V81.5161Z" fill="white"/>
</mask>
<g mask="url(#mask6_308_382)">
<mask id="mask7_308_382" style="mask-type:luminance" maskUnits="userSpaceOnUse" x="74" y="81" width="34" height="9">
<path d="M74.3682 85.4659C74.3682 84.4183 74.7713 83.4147 75.4902 82.6724C76.2069 81.9324 77.1788 81.5161 78.1956 81.5161H103.239C104.253 81.5161 105.227 81.9324 105.944 82.6724C106.663 83.4147 107.066 84.4183 107.066 85.4659C107.066 86.5134 106.663 87.5194 105.944 88.2594C105.227 89.0017 104.253 89.4179 103.239 89.4179H78.1956C77.1788 89.4179 76.2069 89.0017 75.4902 88.2594C74.7713 87.5194 74.3682 86.5134 74.3682 85.4659Z" fill="white"/>
</mask>
<g mask="url(#mask7_308_382)">
<path d="M74.3682 89.4179V81.5161H107.071V89.4179H74.3682Z" fill="white"/>
</g>
</g>
<mask id="mask8_308_382" style="mask-type:luminance" maskUnits="userSpaceOnUse" x="74" y="84" width="9" height="34">
<path d="M74.3643 84.0181H82.0169V117.785H74.3643V84.0181Z" fill="white"/>
</mask>
<g mask="url(#mask8_308_382)">
<mask id="mask9_308_382" style="mask-type:luminance" maskUnits="userSpaceOnUse" x="74" y="84" width="9" height="34">
<path d="M78.1895 117.785C77.1749 117.785 76.203 117.369 75.484 116.629C74.7674 115.887 74.3643 114.883 74.3643 113.833V87.975C74.3643 86.9274 74.7674 85.9215 75.484 85.1815C76.203 84.4392 77.1749 84.0229 78.1895 84.0229C79.2062 84.0229 80.1782 84.4392 80.8971 85.1815C81.6138 85.9215 82.0169 86.9274 82.0169 87.975V113.833C82.0169 114.883 81.6138 115.887 80.8971 116.629C80.1782 117.369 79.2062 117.785 78.1895 117.785Z" fill="white"/>
</mask>
<g mask="url(#mask9_308_382)">
<path d="M82.0169 117.785H74.3643V84.0181H82.0169V117.785Z" fill="white"/>
</g>
</g>
<mask id="mask10_308_382" style="mask-type:luminance" maskUnits="userSpaceOnUse" x="74" y="109" width="26" height="9">
<path d="M74.8232 109.89H99.8439V117.792H74.8232V109.89Z" fill="white"/>
</mask>
<g mask="url(#mask10_308_382)">
<mask id="mask11_308_382" style="mask-type:luminance" maskUnits="userSpaceOnUse" x="74" y="109" width="26" height="9">
<path d="M99.8437 113.84C99.8437 114.887 99.4406 115.893 98.7239 116.633C98.005 117.376 97.033 117.792 96.0162 117.792H78.6572C77.6427 117.792 76.6707 117.376 75.9518 116.633C75.2352 115.893 74.832 114.887 74.832 113.84C74.832 112.792 75.2352 111.786 75.9518 111.046C76.6707 110.306 77.6427 109.89 78.6572 109.89H96.0162C97.033 109.89 98.005 110.306 98.7239 111.046C99.4406 111.786 99.8437 112.792 99.8437 113.84Z" fill="white"/>
</mask>
<g mask="url(#mask11_308_382)">
<path d="M99.8439 109.89V117.792H74.8232V109.89H99.8439Z" fill="white"/>
</g>
</g>
<mask id="mask12_308_382" style="mask-type:luminance" maskUnits="userSpaceOnUse" x="93" y="94" width="8" height="24">
<path d="M93.2324 94.7432H100.885V117.339H93.2324V94.7432Z" fill="white"/>
</mask>
<g mask="url(#mask12_308_382)">
<mask id="mask13_308_382" style="mask-type:luminance" maskUnits="userSpaceOnUse" x="93" y="94" width="8" height="24">
<path d="M97.0576 117.338C96.0431 117.338 95.0689 116.922 94.3522 116.18C93.6355 115.44 93.2324 114.434 93.2324 113.386V98.7089C93.2324 97.6613 93.6355 96.6554 94.3522 95.9154C95.0689 95.1731 96.0431 94.7568 97.0576 94.7568C98.0722 94.7568 99.0464 95.1731 99.763 95.9154C100.482 96.6554 100.885 97.6613 100.885 98.7089V113.386C100.885 114.434 100.482 115.44 99.763 116.18C99.0464 116.922 98.0722 117.338 97.0576 117.338Z" fill="white"/>
</mask>
<g mask="url(#mask13_308_382)">
<path d="M100.885 117.339H93.2324V94.7432H100.885V117.339Z" fill="white"/>
</g>
</g>
<mask id="mask14_308_382" style="mask-type:luminance" maskUnits="userSpaceOnUse" x="33" y="47" width="101" height="99">
<path d="M33.9219 47.9663H133.203V145.667H33.9219V47.9663Z" fill="white"/>
</mask>
<g mask="url(#mask14_308_382)">
<path d="M131.442 80.5798C126.072 60.1673 109.833 47.9805 87.9944 47.9805H33.9219L34.9902 50.5057C39.5723 61.3513 49.9416 68.3628 61.4038 68.3652H76.1268L76.2478 68.3628C76.8077 68.3212 78.8748 68.1917 81.9766 68.1917C84.9597 68.1917 87.9989 68.312 90.9999 68.5502L91.2955 68.5733C102.782 69.5075 118.522 72.6086 128.246 82.0621L128.372 82.1823C128.423 82.2332 128.475 82.2818 128.522 82.3327L133.151 87.0918L131.442 80.5798ZM132.923 104.107L132.909 104.304C129.989 129.737 112.594 145.536 87.5129 145.536H53.0166V97.3824H54.7612C64.8617 97.3824 73.0765 105.867 73.0765 116.294V124.82H88.355C95.88 124.82 102.216 122.27 106.681 117.441C111.226 112.527 113.629 105.425 113.629 96.9037V96.6123C113.629 90.0148 112.222 84.326 109.45 79.701L106.863 75.3836L111.508 77.0486C117.27 79.1137 121.946 81.8632 125.402 85.2233C130.452 90.135 132.981 96.4875 132.923 104.107Z" fill="white"/>
</g>
</svg>
