<svg width="121" height="46" viewBox="0 0 121 46" fill="none" xmlns="http://www.w3.org/2000/svg">
<path d="M50.1 40.3C48.95 40.3 47.9083 40.05 46.975 39.55C46.0583 39.0333 45.3333 38.3 44.8 37.35C44.2667 36.3833 44 35.2167 44 33.85C44 32.5167 44.275 31.375 44.825 30.425C45.375 29.4583 46.0833 28.7167 46.95 28.2C47.8167 27.6833 48.7333 27.425 49.7 27.425C50.8167 27.425 51.75 27.675 52.5 28.175C53.25 28.675 53.8083 29.3667 54.175 30.25C54.5583 31.1167 54.75 32.1167 54.75 33.25C54.75 33.5167 54.7333 33.775 54.7 34.025C54.6833 34.275 54.65 34.5167 54.6 34.75H46.15V32.55H52.2C52.2 31.6667 52 30.975 51.6 30.475C51.2 29.9583 50.5833 29.7 49.75 29.7C49.2833 29.7 48.825 29.825 48.375 30.075C47.9417 30.325 47.575 30.75 47.275 31.35C46.9917 31.95 46.85 32.7833 46.85 33.85C46.85 34.8167 47.0167 35.6083 47.35 36.225C47.6833 36.825 48.125 37.275 48.675 37.575C49.225 37.8583 49.8167 38 50.45 38C50.9833 38 51.4833 37.925 51.95 37.775C52.4333 37.625 52.8833 37.4167 53.3 37.15L54.3 39C53.7333 39.4 53.0833 39.7167 52.35 39.95C51.6333 40.1833 50.8833 40.3 50.1 40.3ZM62.6709 40.3C61.5376 40.3 60.5209 40.05 59.6209 39.55C58.7209 39.0333 58.0042 38.3 57.4709 37.35C56.9542 36.3833 56.6959 35.225 56.6959 33.875C56.6959 32.5083 56.9792 31.35 57.5459 30.4C58.1126 29.4333 58.8626 28.7 59.7959 28.2C60.7459 27.6833 61.7626 27.425 62.8459 27.425C63.6292 27.425 64.3126 27.5583 64.8959 27.825C65.4959 28.075 66.0126 28.4 66.4459 28.8L65.0709 30.6C64.8042 30.35 64.4959 30.15 64.1459 30C63.8126 29.85 63.4292 29.775 62.9959 29.775C62.3459 29.775 61.7709 29.95 61.2709 30.3C60.7709 30.6333 60.3709 31.1083 60.0709 31.725C59.7876 32.325 59.6459 33.0417 59.6459 33.875C59.6459 34.6917 59.7876 35.4083 60.0709 36.025C60.3542 36.625 60.7376 37.1 61.2209 37.45C61.7209 37.7833 62.2959 37.95 62.9459 37.95C63.4292 37.95 63.8792 37.8583 64.2959 37.675C64.7292 37.4917 65.1126 37.2583 65.4459 36.975L66.6209 38.75C66.1042 39.2167 65.5042 39.5917 64.8209 39.875C64.1542 40.1583 63.4376 40.3 62.6709 40.3ZM73.4584 40.3C72.4417 40.3 71.4917 40.05 70.6084 39.55C69.7251 39.0333 69.0084 38.3 68.4584 37.35C67.9084 36.3833 67.6334 35.225 67.6334 33.875C67.6334 32.5083 67.9084 31.35 68.4584 30.4C69.0084 29.4333 69.7251 28.7 70.6084 28.2C71.4917 27.6833 72.4417 27.425 73.4584 27.425C74.4917 27.425 75.4501 27.6833 76.3334 28.2C77.2167 28.7 77.9334 29.4333 78.4834 30.4C79.0334 31.35 79.3084 32.5083 79.3084 33.875C79.3084 35.225 79.0334 36.3833 78.4834 37.35C77.9334 38.3 77.2167 39.0333 76.3334 39.55C75.4501 40.05 74.4917 40.3 73.4584 40.3ZM73.4584 37.95C74.0584 37.95 74.5751 37.7833 75.0084 37.45C75.4417 37.1167 75.7751 36.6417 76.0084 36.025C76.2417 35.4083 76.3584 34.6917 76.3584 33.875C76.3584 33.0583 76.2417 32.3417 76.0084 31.725C75.7751 31.1083 75.4417 30.6333 75.0084 30.3C74.5751 29.95 74.0584 29.775 73.4584 29.775C72.8584 29.775 72.3417 29.95 71.9084 30.3C71.4917 30.6333 71.1667 31.1083 70.9334 31.725C70.7001 32.3417 70.5834 33.0583 70.5834 33.875C70.5834 34.6917 70.7001 35.4083 70.9334 36.025C71.1667 36.6417 71.4917 37.1167 71.9084 37.45C72.3417 37.7833 72.8584 37.95 73.4584 37.95Z" fill="#8183CD"/>
<path d="M50.7728 21.9999C49.3075 21.9999 47.9801 21.7221 46.7909 21.1664C45.6228 20.5921 44.699 19.7771 44.0194 18.7212C43.3398 17.6468 43 16.3502 43 14.8312C43 13.3493 43.3504 12.0804 44.0512 11.0245C44.7521 9.95014 45.6547 9.12583 46.759 8.55159C47.8633 7.97734 49.0314 7.69022 50.2631 7.69022C51.686 7.69022 52.8753 7.96808 53.831 8.5238C54.7867 9.07952 55.4981 9.84826 55.9654 10.83C56.4538 11.7933 56.698 12.9047 56.698 14.1643C56.698 14.4607 56.6768 14.7478 56.6343 15.0257C56.6131 15.3036 56.5706 15.5722 56.5069 15.8315H45.7396V13.3863H53.4487C53.4487 12.4046 53.1939 11.6358 52.6842 11.0801C52.1745 10.5059 51.3887 10.2187 50.3269 10.2187C49.7322 10.2187 49.1482 10.3577 48.5748 10.6355C48.0226 10.9134 47.5554 11.3857 47.1731 12.0526C46.8121 12.7195 46.6316 13.6457 46.6316 14.8312C46.6316 15.9056 46.8439 16.7855 47.2687 17.4709C47.6934 18.1377 48.2562 18.6379 48.9571 18.9713C49.6579 19.2862 50.4118 19.4436 51.2188 19.4436C51.8984 19.4436 52.5355 19.3603 53.1302 19.1936C53.7461 19.0269 54.3195 18.7953 54.8504 18.4989L56.1246 20.5551C55.4026 20.9997 54.5743 21.3516 53.6399 21.6109C52.7267 21.8703 51.771 21.9999 50.7728 21.9999Z" fill="#0F103F"/>
<path d="M83.7475 21.9999C82.2821 21.9999 80.9548 21.7221 79.7655 21.1664C78.5974 20.5921 77.6736 19.7771 76.994 18.7212C76.3144 17.6468 75.9746 16.3502 75.9746 14.8312C75.9746 13.3493 76.325 12.0804 77.0259 11.0245C77.7267 9.95014 78.6293 9.12583 79.7336 8.55159C80.838 7.97734 82.006 7.69022 83.2378 7.69022C84.6607 7.69022 85.8499 7.96808 86.8056 8.5238C87.7613 9.07952 88.4728 9.84826 88.94 10.83C89.4284 11.7933 89.6727 12.9047 89.6727 14.1643C89.6727 14.4607 89.6514 14.7478 89.609 15.0257C89.5877 15.3036 89.5452 15.5722 89.4815 15.8315H78.7142V13.3863H86.4233C86.4233 12.4046 86.1685 11.6358 85.6588 11.0801C85.1491 10.5059 84.3633 10.2187 83.3015 10.2187C82.7068 10.2187 82.1228 10.3577 81.5494 10.6355C80.9972 10.9134 80.53 11.3857 80.1477 12.0526C79.7867 12.7195 79.6062 13.6457 79.6062 14.8312C79.6062 15.9056 79.8186 16.7855 80.2433 17.4709C80.668 18.1377 81.2308 18.6379 81.9317 18.9713C82.6325 19.2862 83.3864 19.4436 84.1934 19.4436C84.873 19.4436 85.5101 19.3603 86.1048 19.1936C86.7207 19.0269 87.2941 18.7953 87.825 18.4989L89.0993 20.5551C88.3772 20.9997 87.5489 21.3516 86.6145 21.6109C85.7013 21.8703 84.7456 21.9999 83.7475 21.9999Z" fill="#0F103F"/>
<path d="M93.8087 21.6665V8.02365H96.835L97.0899 9.85752H97.2173C97.9181 9.26476 98.6827 8.75535 99.5109 8.3293C100.339 7.90325 101.284 7.69022 102.346 7.69022C104.024 7.69022 105.245 8.16258 106.01 9.1073C106.774 10.052 107.156 11.3857 107.156 13.1085V21.6665H103.493V13.5253C103.493 12.3953 103.302 11.5988 102.92 11.1357C102.537 10.6726 101.911 10.441 101.04 10.441C100.36 10.441 99.7551 10.5892 99.2242 10.8856C98.7145 11.1635 98.1305 11.5802 97.4721 12.136V21.6665H93.8087Z" fill="#0F103F"/>
<path d="M117.783 21.9444C115.977 21.9444 114.693 21.4905 113.928 20.5829C113.185 19.6567 112.813 18.4619 112.813 16.9985V10.5522H110.583V8.16258L113.004 8.02365L113.45 3.74463H116.508V8.02365H120.49V10.5522H116.508V16.9985C116.508 17.795 116.689 18.397 117.05 18.8046C117.411 19.1936 117.963 19.3881 118.706 19.3881C118.982 19.3881 119.259 19.3696 119.535 19.3325C119.811 19.2955 120.076 19.2214 120.331 19.1102L121 21.3609C120.596 21.5276 120.119 21.6665 119.566 21.7777C119.014 21.8888 118.42 21.9444 117.783 21.9444Z" fill="#0F103F"/>
<path d="M67 20.8529L59.0087 5.66949L66.408 7.96272C66.7937 8.08225 67.2065 8.08225 67.5921 7.96272L74.9913 5.66949L67 20.8529Z" fill="#0F103F" stroke="#8183CD" stroke-width="2"/>
<g clip-path="url(#clip0_402_829)">
<path d="M40.0984 39.1392C39.9796 39.9902 39.706 40.7549 39.2896 41.5164C38.5975 42.7818 37.5253 43.1831 36.2977 43.3884C34.7447 43.6481 33.1918 43.9081 31.6401 44.1765C29.8689 44.4829 28.1006 44.8091 26.3282 45.1075C24.538 45.409 22.7503 45.7462 20.9497 45.9495C20.0973 46.0457 19.2105 45.9225 18.3517 45.7999C16.687 45.5623 15.031 45.2547 13.3715 44.9761C12.2264 44.7838 11.0823 44.5844 9.93599 44.4011C8.8743 44.2314 7.80701 44.0992 6.74799 43.9131C5.58522 43.7087 4.43454 43.4208 3.26869 43.243C1.71676 43.0063 0.736923 42.0712 0.203514 40.5554C0.0819748 40.2101 0.0656852 39.8226 0.00278629 39.3576C0.00308057 28.3498 0.0015399 17.4389 0 6.52805C0.0272953 4.65862 1.4331 2.90337 3.18776 2.60628C4.63596 2.36107 6.09416 2.18357 7.54383 1.94748C8.83864 1.73661 10.1258 1.47302 11.42 1.25727C13.1458 0.969573 14.876 0.711569 16.6025 0.428931C17.4194 0.295214 18.2277 0.0657558 19.0481 0.00391938C19.8973 -0.060085 20.7667 -0.0556047 21.6093 0.0632095C23.7251 0.361551 25.833 0.727364 27.9399 1.09297C29.5831 1.37812 31.218 1.71784 32.8607 2.00657C34.1228 2.22839 35.3873 2.44545 36.6578 2.59841C38.471 2.81672 39.91 4.57477 40.0152 6.35236C40.0215 6.45841 40.0637 6.56205 40.0532 6.72961C40.0125 6.84631 40.0036 6.90022 40.0036 6.95412C40.002 17.5576 40.0007 28.161 40.0042 38.7645C40.0042 38.8894 40.0656 39.0143 40.0984 39.1392ZM33.578 40.5083C33.8955 40.452 34.2117 40.3843 34.5308 40.3411C36.3328 40.0968 37.1485 39.1303 37.1502 37.2075C37.1549 32.0071 37.1563 26.8067 37.1564 21.6063C37.1566 17.1851 37.159 12.7638 37.1484 8.34262C37.1448 6.84031 36.3581 5.84251 34.9823 5.56737C34.3155 5.43403 33.6413 5.3438 32.9709 5.23077C29.8048 4.69699 26.6417 4.14218 23.4716 3.63733C22.1996 3.43475 20.8982 3.14188 19.6351 3.24289C17.5611 3.40873 15.5069 3.85901 13.4452 4.1953C10.6957 4.64379 7.94778 5.10388 5.19745 5.54684C4.08772 5.72556 3.22076 6.23478 2.91575 7.46074C2.80477 7.90681 2.80049 8.39178 2.80011 8.85905C2.79254 18.2995 2.79238 27.7399 2.79279 37.1803C2.7928 37.397 2.80871 37.6146 2.83052 37.8302C2.95903 39.1008 3.72864 40.0281 4.8966 40.2384C6.80244 40.5815 8.71468 40.8841 10.6232 41.2105C12.866 41.5941 15.1047 42.0062 17.3511 42.3634C18.4224 42.5337 19.5174 42.7625 20.5839 42.6852C22.1854 42.569 23.7728 42.218 25.3633 41.9471C28.0745 41.4852 30.7834 41.0079 33.578 40.5083Z" fill="#0A142F"/>
<path d="M33.535 40.5226C30.7827 41.0078 28.0738 41.4851 25.3626 41.9469C23.7722 42.2179 22.1847 42.5689 20.5832 42.685C19.5168 42.7624 18.4217 42.5336 17.3504 42.3633C15.104 42.0061 12.8653 41.594 10.6225 41.2104C8.71401 40.884 6.80177 40.5814 4.89593 40.2383C3.72797 40.028 2.95836 39.1007 2.82985 37.8301C2.80804 37.6145 2.79213 37.3969 2.79212 37.1802C2.79171 27.7398 2.79187 18.2993 2.79944 8.85893C2.79982 8.39166 2.8041 7.90669 2.91508 7.46062C3.22009 6.23466 4.08705 5.72544 5.19678 5.54671C7.94711 5.10375 10.695 4.64367 13.4446 4.19517C15.5062 3.85888 17.5604 3.4086 19.6344 3.24276C20.8976 3.14175 22.1989 3.43462 23.471 3.6372C26.6411 4.14206 29.8042 4.69686 32.9702 5.23064C33.6406 5.34367 34.3149 5.43391 34.9816 5.56724C36.3574 5.84238 37.1442 6.84019 37.1478 8.3425C37.1584 12.7637 37.1559 17.185 37.1558 21.6062C37.1556 26.8066 37.1543 32.007 37.1496 37.2074C37.1478 39.1302 36.3322 40.0967 34.5301 40.341C34.211 40.3842 33.8949 40.4519 33.535 40.5226ZM14.3054 12.3975C13.8957 12.47 13.4861 12.5424 13.0941 12.6117C13.0941 18.666 13.0941 24.6436 13.0941 30.6712C14.0273 30.7659 14.9464 30.8591 15.8437 30.9501C15.8437 32.7987 15.8437 34.5827 15.8437 36.3943C14.5152 36.2271 13.2289 36.0653 11.9265 35.9015C11.9265 28.1665 11.9265 20.5039 11.9265 12.7832C11.0876 12.9211 10.2818 13.0536 9.50979 13.1805C9.50979 21.5328 9.50979 29.8086 9.50979 38.1045C12.4316 38.8301 15.3282 39.5495 18.2462 40.2742C18.2462 36.2156 18.2462 32.2378 18.2462 28.1811C16.9863 28.1811 15.7558 28.1811 14.5197 28.1811C14.5133 28.0317 14.5077 27.9608 14.5077 27.8899C14.5101 23.0872 14.5134 18.2845 14.5146 13.4818C14.5147 13.1567 14.4996 12.8315 14.4986 12.4405C14.4624 12.4303 14.4261 12.4202 14.3054 12.3975ZM19.5815 5.54683C18.2982 5.77525 17.0148 6.00367 15.7226 6.23366C15.7226 12.8186 15.7226 19.3809 15.7226 25.9584C16.5818 25.9584 17.4061 25.9584 18.2884 25.9584C18.2884 23.4284 18.2884 20.9239 18.2884 18.3811C19.1895 18.3811 20.0329 18.3811 20.9022 18.3811C20.9022 14.0958 20.9022 9.84999 20.9022 5.53927C20.4808 5.53927 20.0785 5.53927 19.5815 5.54683ZM23.3488 31.3736C23.3488 29.5878 23.3488 27.8021 23.3488 25.9641C27.2238 25.9641 31.0369 25.9641 34.8641 25.9641C34.8641 25.1393 34.8641 24.3678 34.8641 23.5523C31.0246 23.5523 27.2093 23.5523 23.3533 23.5523C23.3533 22.6113 23.3533 21.7133 23.3533 20.7985C22.4931 20.7985 21.6742 20.7985 20.8765 20.7985C20.8765 27.3067 20.8765 33.7766 20.8765 40.2942C21.7244 40.1509 22.5205 40.0163 23.3488 39.8764C23.3488 37.0554 23.3488 34.2689 23.3488 31.3736ZM34.8776 34.7447C34.8776 32.5913 34.8776 30.4379 34.8776 28.2411C31.81 28.2411 28.7607 28.2411 25.715 28.2411C25.715 31.6415 25.715 35.0176 25.715 38.4066C28.8005 38.4588 31.8562 38.7153 34.8774 37.8067C34.8774 36.8418 34.8774 35.8477 34.8776 34.7447ZM26.5815 20.6861C29.3317 20.6861 32.0819 20.6861 34.8597 20.6861C34.8597 19.9288 34.8597 19.2154 34.8597 18.4601C31.7949 18.4601 28.7582 18.4601 25.709 18.4601C25.709 17.7984 25.709 17.1794 25.709 16.5137C28.7813 16.5137 31.8156 16.5137 34.8608 16.5137C34.8608 15.8054 34.8608 15.1448 34.8608 14.4446C31.7959 14.4446 28.7588 14.4446 25.6751 14.4446C25.6751 14.2298 25.6749 14.0531 25.6751 13.8764C25.6778 11.5208 25.681 9.16523 25.6822 6.80966C25.6823 6.58675 25.7589 6.33942 25.4032 6.29764C24.7679 6.22302 24.1374 6.10218 23.4892 5.99813C23.4892 10.9106 23.4892 15.7937 23.4892 20.6859C24.5094 20.6859 25.4944 20.6859 26.5815 20.6861ZM5.14186 35.5049C5.14186 36.2782 5.14186 37.0514 5.14186 37.8564C5.78895 37.9597 6.38213 38.0543 7.03251 38.1581C7.03251 28.837 7.03251 19.5869 7.03251 10.3212C8.68312 10.0464 10.2883 9.7791 11.9125 9.50866C11.9125 8.61781 11.9125 7.75613 11.9125 6.85374C9.63602 7.25648 7.38761 7.65427 5.14233 8.0515C5.14233 17.2093 5.14233 26.3029 5.14186 35.5049ZM32.2957 12.4387C33.1414 12.4387 33.9872 12.4387 34.8592 12.4387C34.8592 11.5141 34.8592 10.636 34.8592 9.68986C33.272 9.68986 31.7051 9.68986 30.0945 9.68986C30.0945 8.77895 30.0945 7.93506 30.0945 7.09125C29.2847 6.96077 28.519 6.83741 27.7373 6.71147C27.7373 8.65182 27.7373 10.5253 27.7373 12.4386C29.2455 12.4386 30.7196 12.4386 32.2957 12.4387ZM14.5109 8.81382C14.5109 8.026 14.5109 7.23818 14.5109 6.41084C14.0089 6.49908 13.5644 6.57719 13.1093 6.65716C13.1093 7.56324 13.1093 8.4516 13.1093 9.42919C13.5867 9.15208 14.1703 9.47872 14.5109 8.81382Z" fill="white"/>
<path d="M14.4915 12.5061C14.4996 12.8312 14.5147 13.1564 14.5146 13.4815C14.5133 18.2842 14.51 23.0869 14.5077 27.8896C14.5076 27.9605 14.5133 28.0314 14.5196 28.1808C15.7558 28.1808 16.9862 28.1808 18.2462 28.1808C18.2462 32.2376 18.2462 36.2153 18.2462 40.2739C15.3282 39.5493 12.4316 38.8298 9.50977 38.1042C9.50977 29.8083 9.50977 21.5326 9.50977 13.1802C10.2817 13.0533 11.0876 12.9208 11.9265 12.7829C11.9265 20.5036 11.9265 28.1662 11.9265 35.9012C13.2288 36.065 14.5152 36.2269 15.8436 36.394C15.8436 34.5824 15.8436 32.7984 15.8436 30.9499C14.9464 30.8588 14.0273 30.7656 13.0941 30.671C13.0941 24.6433 13.0941 18.6657 13.0941 12.6114C13.4861 12.5421 13.8957 12.4697 14.3601 12.4243C14.4365 12.476 14.462 12.4942 14.4915 12.5061Z" fill="#0A142F"/>
<path d="M19.6289 5.54284C20.0785 5.53906 20.4808 5.53906 20.9022 5.53906C20.9022 9.84978 20.9022 14.0956 20.9022 18.3809C20.0329 18.3809 19.1895 18.3809 18.2884 18.3809C18.2884 20.9237 18.2884 23.4282 18.2884 25.9582C17.4061 25.9582 16.5818 25.9582 15.7227 25.9582C15.7227 19.3807 15.7227 12.8184 15.7227 6.23346C17.0149 6.00346 18.2982 5.77504 19.6289 5.54284Z" fill="#0A142F"/>
<path d="M23.3493 31.4278C23.3493 34.2687 23.3493 37.0552 23.3493 39.8762C22.521 40.0161 21.7248 40.1507 20.877 40.294C20.877 33.7764 20.877 27.3065 20.877 20.7983C21.6747 20.7983 22.4936 20.7983 23.3538 20.7983C23.3538 21.7131 23.3538 22.6111 23.3538 23.5521C27.2098 23.5521 31.0251 23.5521 34.8646 23.5521C34.8646 24.3676 34.8646 25.1391 34.8646 25.9639C31.0373 25.9639 27.2243 25.9639 23.3493 25.9639C23.3493 27.8019 23.3493 29.5876 23.3493 31.4278Z" fill="#0A142F"/>
<path d="M34.8773 34.7992C34.8772 35.8477 34.8772 36.8419 34.8772 37.8068C31.856 38.7153 28.8004 38.4589 25.7148 38.4067C25.7148 35.0177 25.7148 31.6416 25.7148 28.2412C28.7605 28.2412 31.8098 28.2412 34.8774 28.2412C34.8774 30.438 34.8774 32.5914 34.8773 34.7992ZM30.5608 30.9086C29.7669 30.9086 28.973 30.9086 28.1677 30.9086C28.1677 32.5383 28.1677 34.1157 28.1677 35.6725C29.6119 35.6725 31.0134 35.6725 32.417 35.6725C32.417 34.0777 32.417 32.5144 32.417 30.9085C31.8112 30.9085 31.237 30.9085 30.5608 30.9086Z" fill="#0A142F"/>
<path d="M26.5305 20.6859C25.4945 20.6858 24.5095 20.6858 23.4893 20.6858C23.4893 15.7936 23.4893 10.9105 23.4893 5.99805C24.1375 6.10209 24.768 6.22293 25.4032 6.29755C25.7589 6.33933 25.6824 6.58666 25.6823 6.80958C25.6811 9.16515 25.6778 11.5207 25.6752 13.8763C25.675 14.053 25.6752 14.2297 25.6752 14.4445C28.7588 14.4445 31.7959 14.4445 34.8608 14.4445C34.8608 15.1447 34.8608 15.8053 34.8608 16.5136C31.8157 16.5136 28.7814 16.5136 25.7091 16.5136C25.7091 17.1794 25.7091 17.7983 25.7091 18.46C28.7582 18.46 31.7949 18.46 34.8597 18.46C34.8597 19.2154 34.8597 19.9287 34.8597 20.686C32.082 20.686 29.3318 20.686 26.5305 20.6859Z" fill="#0A142F"/>
<path d="M5.14184 35.4505C5.14207 26.3027 5.14207 17.2091 5.14207 8.05127C7.38735 7.65405 9.63576 7.25626 11.9122 6.85352C11.9122 7.75591 11.9122 8.61759 11.9122 9.50844C10.288 9.77888 8.68286 10.0462 7.03225 10.321C7.03225 19.5866 7.03225 28.8367 7.03225 38.1579C6.38187 38.0541 5.78869 37.9595 5.1416 37.8562C5.1416 37.0512 5.1416 36.2779 5.14184 35.4505Z" fill="#0A142F"/>
<path d="M32.2447 12.4386C30.7196 12.4386 29.2455 12.4386 27.7373 12.4386C27.7373 10.5253 27.7373 8.65177 27.7373 6.71143C28.519 6.83737 29.2846 6.96072 30.0945 7.0912C30.0945 7.93501 30.0945 8.7789 30.0945 9.68982C31.705 9.68982 33.272 9.68982 34.8591 9.68982C34.8591 10.6359 34.8591 11.514 34.8591 12.4387C33.9871 12.4387 33.1414 12.4387 32.2447 12.4386Z" fill="#0A142F"/>
<path d="M14.5096 8.86314C14.1704 9.47853 13.5868 9.15189 13.1094 9.42899C13.1094 8.4514 13.1094 7.56305 13.1094 6.65697C13.5644 6.57699 14.0089 6.49888 14.511 6.41064C14.511 7.23799 14.511 8.02581 14.5096 8.86314Z" fill="#0A142F"/>
<path d="M14.495 12.4732C14.462 12.4943 14.4364 12.4761 14.4023 12.4307C14.4261 12.42 14.4623 12.4301 14.495 12.4732Z" fill="#0A142F"/>
<path d="M30.6121 30.9082C31.2373 30.9082 31.8115 30.9082 32.4173 30.9082C32.4173 32.514 32.4173 34.0774 32.4173 35.6722C31.0137 35.6722 29.6122 35.6722 28.168 35.6722C28.168 34.1154 28.168 32.538 28.168 30.9082C28.9733 30.9082 29.7672 30.9082 30.6121 30.9082Z" fill="white"/>
</g>
<defs>
<clipPath id="clip0_402_829">
<rect width="40" height="46" fill="white"/>
</clipPath>
</defs>
</svg>
