<svg width="22" height="22" viewBox="0 0 22 22" fill="none" xmlns="http://www.w3.org/2000/svg">
<g clip-path="url(#clip0_635_408)">
<path d="M11.0001 0.0566406C4.92517 0.0566406 0 4.96206 0 11.0135C0 17.0648 4.92517 21.9706 11.0001 21.9706C17.075 21.9706 22 17.0648 22 11.0135C22 4.96206 17.0748 0.0566406 11.0001 0.0566406ZM11.0001 20.5637C9.27167 20.5637 7.87033 19.4136 7.87033 17.9953H14.1299C14.1299 19.4134 12.7285 20.5637 11.0001 20.5637ZM16.1695 17.1447H5.83015V15.2772H16.1697V17.1447H16.1695ZM16.1324 14.316H5.85965C5.82549 14.2767 5.79055 14.2381 5.75755 14.1982C4.69921 12.9182 4.44997 12.2499 4.2079 11.5689C4.20382 11.5465 5.49122 11.8309 6.40415 12.0355C6.40415 12.0355 6.87392 12.1438 7.56071 12.2685C6.90129 11.4985 6.50975 10.5197 6.50975 9.51924C6.50975 7.32283 8.20091 5.40351 7.5908 3.85216C8.18461 3.90031 8.81976 5.10051 8.86266 6.9771C9.49393 6.10813 9.75813 4.5212 9.75813 3.54819C9.75813 2.54077 10.4245 1.37054 11.0911 1.33052C10.4969 2.30603 11.2451 3.14233 11.9101 5.21692C12.1596 5.99617 12.1277 7.30756 12.3203 8.13921C12.3842 6.4119 12.6823 3.89161 13.7824 3.02147C13.2971 4.11726 13.8542 5.4884 14.2353 6.14757C14.85 7.21107 15.2228 8.01681 15.2228 9.5407C15.2228 10.5624 14.844 11.5244 14.2052 12.2764C14.9316 12.1407 15.4332 12.0183 15.4332 12.0183L17.7921 11.5598C17.7923 11.5596 17.4495 12.9638 16.1324 14.316Z" fill="#DA4E31"/>
</g>
<defs>
<clipPath id="clip0_635_408">
<rect width="22" height="22" fill="white"/>
</clipPath>
</defs>
</svg>
